<svg height="464pt" viewBox="0 0 464 464" width="464pt" xmlns="http://www.w3.org/2000/svg"><path d="m224 320h240v144h-240zm0 0" fill="#7ab92d"/><path d="m248 320h216v120h-136c-44.183594 0-80-35.816406-80-80zm0 0" fill="#a1d51c"/><path d="m336 320h128v24h-104c-13.253906 0-24-10.746094-24-24zm0 0" fill="#c4f236"/><path d="m376 392c0 17.671875-14.328125 32-32 32s-32-14.328125-32-32 14.328125-32 32-32 32 14.328125 32 32zm0 0" fill="#fcbc04"/><path d="m424 320h40v40c-22.089844 0-40-17.910156-40-40zm0 0" fill="#fcbc04"/><path d="m464 424v40h-40c0-22.089844 17.910156-40 40-40zm0 0" fill="#e59730"/><path d="m224 320h40c0 22.089844-17.910156 40-40 40zm0 0" fill="#e59730"/><path d="m224 424c22.089844 0 40 17.910156 40 40h-40zm0 0" fill="#e59730"/><path d="m424 320c0 8.65625 2.808594 17.074219 8 24h32v-24zm0 0" fill="#f9e109"/><g fill="#fcbc04"><path d="m432 440h32v-16c-12.589844 0-24.445312 5.929688-32 16zm0 0"/><path d="m264 320h-16v32c10.070312-7.554688 16-19.410156 16-32zm0 0"/><path d="m424 400h-16c-4.417969 0-8-3.582031-8-8s3.582031-8 8-8h16c4.417969 0 8 3.582031 8 8s-3.582031 8-8 8zm0 0"/><path d="m280 400h-16c-4.417969 0-8-3.582031-8-8s3.582031-8 8-8h16c4.417969 0 8 3.582031 8 8s-3.582031 8-8 8zm0 0"/><path d="m344 144v-16l-40 32 40 32v-16h56v96h32v-96c0-17.671875-14.328125-32-32-32zm0 0"/></g><path d="m64 96h32v128h-32zm0 0" fill="#4891d3"/><path d="m144 96h32v128h-32zm0 0" fill="#4891d3"/><path d="m224 96h32v128h-32zm0 0" fill="#4891d3"/><path d="m288 96h-256l128-96zm0 0" fill="#57b7eb"/><path d="m32 224h256v32h-256zm0 0" fill="#4891d3"/><path d="m0 256h320v32h-320zm0 0" fill="#4891d3"/><path d="m224 96h32v24h-32zm0 0" fill="#2d72bc"/><path d="m144 96h32v24h-32zm0 0" fill="#2d72bc"/><path d="m64 96h32v24h-32zm0 0" fill="#2d72bc"/><path d="m192 80c-17.21875 0-32.503906-11.015625-37.949219-27.351562-5.441406-16.332032.175781-34.316407 13.949219-44.648438l1.359375-.960938-9.359375-7.039062-128 96h256l-21.359375-16zm0 0" fill="#4891d3"/><path d="m176 56c0 8.835938-7.164062 16-16 16s-16-7.164062-16-16 7.164062-16 16-16 16 7.164062 16 16zm0 0" fill="#2d72bc"/><path d="m64 224h224v16h-208c-8.835938 0-16-7.164062-16-16zm0 0" fill="#57b7eb"/><path d="m32 256h288v16h-272c-8.835938 0-16-7.164062-16-16zm0 0" fill="#57b7eb"/><path d="m176 392-40-32v16h-56v-56h-32v56c0 17.671875 14.328125 32 32 32h56v16zm0 0" fill="#fcbc04"/><path d="m136 360v16h-56v-56h-16v56c0 8.835938 7.164062 16 16 16h64c7.886719.066406 15.523438-2.78125 21.441406-8zm0 0" fill="#f9e109"/><path d="m416 144h-64c0 8.835938 7.164062 16 16 16h32c8.835938 0 16 7.164062 16 16v56c0 8.835938 7.164062 16 16 16v-88c0-8.835938-7.164062-16-16-16zm0 0" fill="#f9e109"/></svg>