<svg height="464pt" viewBox="0 0 464 464" width="464pt" xmlns="http://www.w3.org/2000/svg"><path d="m20.800781 269.359375c-24.195312-41.988281-9.886719-95.632813 32-120l-12-20.71875 55.199219 14.398437-14.640625 54.640626-12-20.800782c-26.765625 15.46875-35.933594 49.707032-20.480469 76.480469l20.800782-12-15.039063 54.640625-54.640625-14.640625zm0 0" fill="#a1d51c"/><path d="m443.199219 269.359375c24.195312-41.988281 9.886719-95.632813-32-120l12-20.71875-54.640625 14.640625 14.640625 54.640625 12-20.800781c26.769531 15.46875 35.9375 49.703125 20.480469 76.480468l-20.800782-12 14.480469 54.398438 54.640625-14.640625zm0 0" fill="#a1d51c"/><path d="m328 96c0 53.019531-42.980469 96-96 96s-96-42.980469-96-96 42.980469-96 96-96 96 42.980469 96 96zm0 0" fill="#f9e109"/><path d="m304 96c0 39.765625-32.234375 72-72 72s-72-32.234375-72-72 32.234375-72 72-72 72 32.234375 72 72zm0 0" fill="#fcbc04"/><path d="m232 24c-25.105469.019531-48.386719 13.117188-61.441406 34.558594 28.355468-17.164063 64.765625-12.753906 88.199218 10.683594 23.4375 23.433593 27.847657 59.84375 10.683594 88.199218 27.507813-16.808594 40.492188-49.851562 31.785156-80.890625-8.710937-31.039062-36.988281-52.507812-69.226562-52.550781zm0 0" fill="#e59730"/><path d="m304 304h-144l24-80h96zm0 0" fill="#fcbc04"/><path d="m237.761719 288c-12.652344.003906-24.5625-5.976562-32.113281-16.128906-7.550782-10.148438-9.851563-23.277344-6.207032-35.390625l3.757813-12.480469h-19.199219l-24 80h144l-4.800781-16zm0 0" fill="#e59730"/><path d="m252.71875 235.199219c12.347656 3.082031 22.964844 10.9375 29.519531 21.839843l15.363281 25.601563-17.601562-58.640625h-72zm0 0" fill="#f9e109"/><path d="m232 384h-144l24-80h96zm0 0" fill="#fcbc04"/><path d="m165.761719 368c-12.652344.003906-24.5625-5.976562-32.113281-16.128906-7.550782-10.148438-9.851563-23.277344-6.207032-35.390625l3.757813-12.480469h-19.199219l-24 80h144l-4.800781-16zm0 0" fill="#e59730"/><path d="m180.71875 315.199219c12.347656 3.082031 22.964844 10.9375 29.519531 21.839843l15.363281 25.601563-17.601562-58.640625h-72zm0 0" fill="#f9e109"/><path d="m376 384h-144l24-80h96zm0 0" fill="#fcbc04"/><path d="m309.761719 368c-12.652344.003906-24.5625-5.976562-32.113281-16.128906-7.550782-10.148438-9.851563-23.277344-6.207032-35.390625l3.757813-12.480469h-19.199219l-24 80h144l-4.800781-16zm0 0" fill="#e59730"/><path d="m324.71875 315.199219c12.347656 3.082031 22.964844 10.9375 29.519531 21.839843l15.363281 25.601563-17.601562-58.640625h-72zm0 0" fill="#f9e109"/><path d="m160 464h-144l24-80h96zm0 0" fill="#fcbc04"/><path d="m93.761719 448c-12.652344.003906-24.5625-5.976562-32.113281-16.128906-7.550782-10.148438-9.851563-23.277344-6.207032-35.390625l3.757813-12.480469h-19.199219l-24 80h144l-4.800781-16zm0 0" fill="#e59730"/><path d="m108.71875 395.199219c12.347656 3.082031 22.964844 10.9375 29.519531 21.839843l15.363281 25.601563-17.601562-58.640625h-72zm0 0" fill="#f9e109"/><path d="m304 464h-144l24-80h96zm0 0" fill="#fcbc04"/><path d="m237.761719 448c-12.652344.003906-24.5625-5.976562-32.113281-16.128906-7.550782-10.148438-9.851563-23.277344-6.207032-35.390625l3.757813-12.480469h-19.199219l-24 80h144l-4.800781-16zm0 0" fill="#e59730"/><path d="m252.71875 395.199219c12.347656 3.082031 22.964844 10.9375 29.519531 21.839843l15.363281 25.601563-17.601562-58.640625h-72zm0 0" fill="#f9e109"/><path d="m448 464h-144l24-80h96zm0 0" fill="#fcbc04"/><path d="m381.761719 448c-12.652344.003906-24.5625-5.976562-32.113281-16.128906-7.550782-10.148438-9.851563-23.277344-6.207032-35.390625l3.757813-12.480469h-19.199219l-24 80h144l-4.800781-16zm0 0" fill="#e59730"/><path d="m396.71875 395.199219c12.347656 3.082031 22.964844 10.9375 29.519531 21.839843l15.363281 25.601563-17.601562-58.640625h-72zm0 0" fill="#f9e109"/><path d="m454.960938 227.921875c.960937-32.34375-15.90625-62.609375-43.921876-78.800781l12-20.722656-54.640624 14.640624 5.121093 19.039063c36.367188 7.125 66.859375 31.773437 81.441407 65.84375zm0 0" fill="#c4f236"/><path d="m18.480469 185.761719c14.3125-6.441407 29.828125-9.765625 45.519531-9.761719 7.46875.011719 14.917969.761719 22.238281 2.238281l9.761719-35.199219-55.039062-14.640624 12 20.722656c-14.816407 8.597656-26.796876 21.332031-34.480469 36.640625zm0 0" fill="#c4f236"/><g fill="#f9e109"><path d="m232 56c8.835938 0 16 7.164062 16 16 0 4.417969 3.582031 8 8 8s8-3.582031 8-8c-.046875-14.554688-9.910156-27.242188-24-30.878906v-9.121094c0-4.417969-3.582031-8-8-8s-8 3.582031-8 8v9.121094c-15.40625 4.183594-25.375 19.082031-23.359375 34.917968 2.015625 15.839844 15.394531 27.769532 31.359375 27.960938 8.835938 0 16 7.164062 16 16s-7.164062 16-16 16-16-7.164062-16-16c0-4.417969-3.582031-8-8-8s-8 3.582031-8 8c.046875 14.554688 9.910156 27.242188 24 30.878906v9.121094c0 4.417969 3.582031 8 8 8s8-3.582031 8-8v-9.121094c15.40625-4.183594 25.375-19.082031 23.359375-34.917968-2.015625-15.839844-15.394531-27.769532-31.359375-27.960938-8.835938 0-16-7.164062-16-16s7.164062-16 16-16zm0 0"/><path d="m248 248h-32c-4.417969 0-8 3.582031-8 8s3.582031 8 8 8h32c4.417969 0 8-3.582031 8-8s-3.582031-8-8-8zm0 0"/><path d="m320 328h-32c-4.417969 0-8 3.582031-8 8s3.582031 8 8 8h32c4.417969 0 8-3.582031 8-8s-3.582031-8-8-8zm0 0"/><path d="m176 328h-32c-4.417969 0-8 3.582031-8 8s3.582031 8 8 8h32c4.417969 0 8-3.582031 8-8s-3.582031-8-8-8zm0 0"/><path d="m248 408h-32c-4.417969 0-8 3.582031-8 8s3.582031 8 8 8h32c4.417969 0 8-3.582031 8-8s-3.582031-8-8-8zm0 0"/><path d="m392 408h-32c-4.417969 0-8 3.582031-8 8s3.582031 8 8 8h32c4.417969 0 8-3.582031 8-8s-3.582031-8-8-8zm0 0"/><path d="m104 408h-32c-4.417969 0-8 3.582031-8 8s3.582031 8 8 8h32c4.417969 0 8-3.582031 8-8s-3.582031-8-8-8zm0 0"/><path d="m352 232c4.417969 0 8-3.582031 8-8s-3.582031-8-8-8h-8v-8c0-4.417969-3.582031-8-8-8s-8 3.582031-8 8v8h-8c-4.417969 0-8 3.582031-8 8s3.582031 8 8 8h8v8c0 4.417969 3.582031 8 8 8s8-3.582031 8-8v-8zm0 0"/><path d="m136 232c4.417969 0 8-3.582031 8-8s-3.582031-8-8-8h-8v-8c0-4.417969-3.582031-8-8-8s-8 3.582031-8 8v8h-8c-4.417969 0-8 3.582031-8 8s3.582031 8 8 8h8v8c0 4.417969 3.582031 8 8 8s8-3.582031 8-8v-8zm0 0"/><path d="m48 328h-8v-8c0-4.417969-3.582031-8-8-8s-8 3.582031-8 8v8h-8c-4.417969 0-8 3.582031-8 8s3.582031 8 8 8h8v8c0 4.417969 3.582031 8 8 8s8-3.582031 8-8v-8h8c4.417969 0 8-3.582031 8-8s-3.582031-8-8-8zm0 0"/><path d="m456 328h-8v-8c0-4.417969-3.582031-8-8-8s-8 3.582031-8 8v8h-8c-4.417969 0-8 3.582031-8 8s3.582031 8 8 8h8v8c0 4.417969 3.582031 8 8 8s8-3.582031 8-8v-8h8c4.417969 0 8-3.582031 8-8s-3.582031-8-8-8zm0 0"/><path d="m64 88c0 4.417969 3.582031 8 8 8s8-3.582031 8-8v-8h8c4.417969 0 8-3.582031 8-8s-3.582031-8-8-8h-8v-8c0-4.417969-3.582031-8-8-8s-8 3.582031-8 8v8h-8c-4.417969 0-8 3.582031-8 8s3.582031 8 8 8h8zm0 0"/></g></svg>