<svg width="160" height="160" viewBox="0 0 160 160" fill="none" xmlns="http://www.w3.org/2000/svg">
<g opacity="0.9">
<path d="M159.86 138.304L159.413 138.145L159.86 138.304C159.428 139.496 158.796 140.606 157.99 141.587C156.696 143.163 155.013 144.38 153.105 145.119H153.063C150.996 145.884 148.799 146.241 146.594 146.171C142.675 146.014 138.807 145.225 135.143 143.837C132.191 142.777 129.31 141.533 126.517 140.112C112.337 132.993 96.043 130.334 85.3451 130.188C82.2895 130.065 79.2302 130.321 76.2384 130.95C74.8131 131.319 73.4144 131.781 72.0514 132.335C71.5769 132.529 71.214 132.695 70.9698 132.813L70.6976 132.945L70.6278 132.979C70.5362 133.029 70.4355 133.061 70.3316 133.072C70.2276 133.084 70.1223 133.075 70.0218 133.046C69.9214 133.017 69.8276 132.969 69.746 132.904C69.6644 132.839 69.5965 132.759 69.5462 132.668C69.4828 132.548 69.4493 132.415 69.4484 132.28C69.4483 132.138 69.4864 131.999 69.5588 131.878C69.6313 131.756 69.7354 131.655 69.8602 131.587C71.7651 130.636 73.7742 129.907 75.8476 129.413C78.9652 128.755 82.1535 128.488 85.3382 128.616C91.8234 128.759 98.279 129.531 104.612 130.922C112.441 132.565 120.03 135.178 127.201 138.699C129.933 140.09 132.751 141.307 135.638 142.342C139.139 143.673 142.834 144.433 146.58 144.592C148.565 144.655 150.543 144.338 152.407 143.657C152.804 143.347 153.122 142.948 153.335 142.494C153.788 141.548 154.13 140.554 154.354 139.53C154.598 138.505 154.745 137.563 154.815 137.065C154.898 136.5 155.159 135.977 155.561 135.569C155.807 135.321 156.1 135.125 156.424 134.992C156.748 134.858 157.095 134.791 157.445 134.793C157.584 134.796 157.722 134.812 157.857 134.842H157.955C158.385 134.937 158.783 135.138 159.113 135.428C159.442 135.717 159.692 136.085 159.839 136.497C159.951 136.801 160.005 137.122 160 137.446C160.003 137.738 159.955 138.028 159.86 138.304Z" fill="url(#paint0_linear)"/>
<path d="M72.9027 121.685C73.1033 121.976 73.252 122.299 73.3424 122.64C73.5597 123.467 73.4731 124.343 73.0982 125.112C72.9393 125.473 72.692 125.789 72.3788 126.031C72.0655 126.273 71.6963 126.433 71.3047 126.497C71.0745 126.498 70.8469 126.45 70.6373 126.355C70.4278 126.261 70.2412 126.123 70.0904 125.95C69.9072 125.701 69.8072 125.4 69.8043 125.092C69.8043 124.496 70.2021 124.212 70.3417 123.707C70.8162 121.941 69.288 122.225 68.7227 122.612C68.3472 122.894 68.0534 123.269 67.8713 123.7C65.8685 128 71.207 129.129 73.8727 129.33C76.5385 129.53 79.4205 129.046 82.0932 129.627C83.4889 129.932 85.1148 130.86 85.5824 132.397L84.9962 132.522H84.417C83.6983 131.889 82.8613 131.402 81.9536 131.089C80.0904 130.396 78.0597 130.361 76.0918 130.327C74.4125 130.339 72.7363 130.183 71.0884 129.863C69.6927 129.551 67.9551 129.17 66.9014 128.028C66.1149 127.099 65.7026 125.915 65.7438 124.703C65.785 123.491 66.2769 122.337 67.1246 121.463C68.7715 119.794 71.5141 119.676 72.9027 121.685Z" fill="url(#paint1_linear)"/>
<path d="M79.9858 147.701C79.2206 147.552 78.5051 147.215 77.9043 146.722C77.3035 146.228 76.8364 145.594 76.5454 144.876C75.9802 143.338 76.4896 141.261 77.8574 140.499C78.2024 140.337 78.5838 140.266 78.9646 140.292C79.3455 140.319 79.713 140.443 80.0316 140.652C80.3502 140.861 80.609 141.148 80.7831 141.485C80.9573 141.822 81.0407 142.198 81.0255 142.577C80.9557 143.505 80.3277 144.384 80.4952 145.291C80.5589 145.652 80.7355 145.983 80.9998 146.238C81.2642 146.492 81.6029 146.658 81.9676 146.711C82.6884 146.77 83.4078 146.582 84.0053 146.178C88.7994 143.359 88.5343 136.019 84.5426 132.889C80.8999 130.029 76.1686 131.248 71.8978 132.743C69.6229 133.54 67.0968 136.698 69.0647 139.184C69.2531 139.426 69.4834 139.751 69.3229 140.021C69.2575 140.118 69.1619 140.191 69.0507 140.229C68.662 140.393 68.2406 140.464 67.8193 140.439C67.398 140.414 66.9883 140.292 66.6222 140.084C65.6183 139.493 64.8719 138.552 64.5287 137.445C64.3752 136.947 64.5985 135.576 64.3473 135.25C64.0961 134.925 62.3166 135.077 61.8769 135.07C57.6899 134.973 52.9516 135.389 49.5741 132.231C48.8763 131.538 49.6718 130.978 50.3278 130.846C51.6746 130.659 52.9866 129.966 54.3334 129.897C54.3822 129.413 54.1938 128.872 54.2496 128.346C54.3201 127.743 54.5149 127.161 54.8218 126.636C55.2703 125.814 55.9951 125.175 56.87 124.829C57.7449 124.484 58.7142 124.454 59.609 124.745C59.6758 124.776 59.7324 124.824 59.7721 124.886C59.8118 124.947 59.8329 125.018 59.8329 125.091C59.8329 125.164 59.8118 125.236 59.7721 125.297C59.7324 125.358 59.6758 125.407 59.609 125.438C57.8365 126.525 59.4345 128.616 60.3068 129.156C61.3409 129.745 62.4419 130.21 63.5867 130.541C65.7907 131.162 68.1205 131.195 70.3417 130.638C74.2775 129.316 78.4505 128.561 82.4073 129.461C83.939 129.77 85.3625 130.472 86.5364 131.496C87.7104 132.52 88.594 133.831 89.0995 135.299C89.4619 136.532 89.564 137.826 89.3996 139.1C89.3238 139.728 89.1978 140.349 89.0227 140.956C87.7945 145.201 83.7959 148.546 79.9858 147.701Z" fill="url(#paint2_linear)"/>
<path d="M37.8156 86.4578C37.5206 86.2614 37.1953 86.1141 36.8526 86.0215C36.0195 85.8059 35.1364 85.8918 34.3614 86.2639C33.998 86.422 33.68 86.6675 33.4363 86.9783C33.1927 87.289 33.0309 87.6552 32.9657 88.0436C32.9643 88.272 33.0128 88.4981 33.108 88.7061C33.2031 88.9141 33.3427 89.0992 33.5169 89.2485C33.7669 89.4333 34.0705 89.5329 34.3822 89.5324C34.9824 89.5324 35.2685 89.1446 35.7779 89.0061C37.5574 88.5283 37.2713 90.0449 36.8875 90.6058C36.5996 90.9771 36.2197 91.2682 35.7849 91.4506C31.4513 93.4381 30.3139 88.1405 30.1115 85.5021C29.9091 82.8637 30.3977 79.9622 29.8115 77.3377C29.5044 75.9527 28.5763 74.3392 27.0201 73.8753L26.8945 74.4569C26.8945 74.6508 26.8945 74.8378 26.8945 75.0317C27.5324 75.7449 28.0233 76.5755 28.3391 77.4762C29.0369 79.3252 29.0369 81.3403 29.1067 83.2931C29.0941 84.9595 29.2507 86.6229 29.5741 88.2582C29.8882 89.6432 30.272 91.3744 31.4234 92.4132C32.3581 93.1945 33.5512 93.6049 34.7727 93.5652C35.9942 93.5256 37.1576 93.0387 38.0389 92.1985C39.7556 90.5573 39.8742 87.8358 37.8156 86.4578Z" fill="url(#paint3_linear)"/>
<path d="M11.6119 79.4292C11.7612 80.189 12.1001 80.8996 12.5975 81.4959C13.0948 82.0923 13.7349 82.5555 14.4591 82.8432C16.0083 83.4041 18.1018 82.8986 18.8694 81.5482C19.0351 81.206 19.1086 80.827 19.0826 80.4482C19.0566 80.0694 18.9321 79.7038 18.7211 79.3871C18.5102 79.0703 18.2201 78.8133 17.8792 78.641C17.5382 78.4688 17.1581 78.3872 16.7759 78.4043C15.8408 78.4667 14.9546 79.0968 14.0404 78.9306C13.6768 78.866 13.3429 78.6894 13.0861 78.4259C12.8293 78.1624 12.6627 77.8253 12.6098 77.4626C12.5506 76.7474 12.7403 76.0337 13.1472 75.4405C15.9943 70.6831 23.3844 70.9462 26.5386 74.9142C29.4206 78.5221 28.1925 83.1825 26.6852 87.4621C25.8896 89.7196 22.7005 92.2195 20.1953 90.2736C19.951 90.0866 19.6231 89.8512 19.3509 90.0105C19.2533 90.0753 19.1797 90.1702 19.1415 90.2805C18.9764 90.6661 18.9037 91.0844 18.9292 91.5026C18.9546 91.9207 19.0774 92.3273 19.2881 92.6904C19.8813 93.6885 20.83 94.4297 21.9468 94.7678C22.4493 94.9202 23.831 94.6986 24.159 94.9479C24.487 95.1972 24.3334 96.963 24.3404 97.3993C24.4381 101.554 24.0194 106.263 27.2016 109.615C27.8994 110.307 28.4646 109.511 28.5972 108.86C28.7857 107.523 29.4835 106.222 29.5533 104.885C30.0418 104.837 30.5861 105.031 31.1164 104.968C31.7256 104.905 32.3136 104.711 32.84 104.4C33.668 103.955 34.3123 103.236 34.6604 102.368C35.0086 101.5 35.0386 100.538 34.7451 99.6499C34.7145 99.5836 34.6654 99.5274 34.6035 99.488C34.5417 99.4486 34.4697 99.4277 34.3962 99.4277C34.3227 99.4277 34.2508 99.4486 34.1889 99.488C34.1271 99.5274 34.0779 99.5836 34.0473 99.6499C32.9517 101.402 30.8442 99.823 30.2999 98.9574C29.7063 97.9313 29.2377 96.8387 28.9042 95.7027C28.2789 93.5179 28.2452 91.2082 28.8065 89.0063C30.1394 85.0938 30.9001 80.9527 29.9999 77.0332C29.3021 74.1317 27.2783 71.3409 24.1101 70.3853C22.8673 70.0257 21.5631 69.9243 20.279 70.0875C19.6459 70.1617 19.0202 70.2891 18.4088 70.4684C14.159 71.6802 10.7814 75.6828 11.6119 79.4292Z" fill="url(#paint4_linear)"/>
<path d="M4.28021e-05 85.5228C6.65041 86.2153 8.76477 93.2925 9.42772 97.9876C10.0396 102.823 12.1967 107.337 15.5827 110.868C27.6692 123.104 42.6238 110.404 42.6238 110.404C42.6238 110.404 21.8492 116.172 16.8039 102.62C16.8039 102.62 12.9448 93.5418 19.979 83.9231C19.979 83.9231 14.0265 86.0006 12.896 92.2676C11.605 88.8813 8.68111 84.0824 4.28021e-05 85.5228Z" fill="url(#paint5_linear)"/>
<path d="M70.6139 160C70.3626 153.366 63.4262 150.776 58.7507 149.779C53.916 148.836 49.5133 146.38 46.1896 142.771C34.7521 129.939 48.5832 116.034 48.5832 116.034C48.5832 116.034 41.3048 136.185 54.5706 142.12C54.5706 142.12 63.4192 146.586 73.5936 140.306C73.5936 140.306 71.0954 146.046 64.7102 146.718C68.0668 148.269 72.7074 151.51 70.6139 160Z" fill="url(#paint6_linear)"/>
<path d="M41.3746 140.326C36.1409 137.002 37.3342 127.765 39.0648 121.054C39.2812 120.244 39.4974 119.475 39.7068 118.769C39.009 119.018 38.2553 119.275 37.4668 119.51C30.8024 121.588 21.5422 123.208 17.9274 118.187C16.2596 126.774 24.2846 129.066 35.5198 123.125C30.1046 134.544 32.8122 142.404 41.3746 140.326Z" fill="url(#paint7_linear)"/>
<path d="M24.6894 138.187C27.7389 136.012 28.9602 130.334 28.9602 130.334C28.9602 130.334 23.3008 131.816 21.284 134.946C20.9559 135.409 20.8058 135.973 20.8609 136.537C20.916 137.1 21.1727 137.625 21.5845 138.017C21.9962 138.409 22.5357 138.642 23.1053 138.673C23.6749 138.704 24.2368 138.531 24.6894 138.187V138.187Z" fill="url(#paint8_linear)"/>
<path d="M39.5045 121.871C38.885 121.851 38.2856 121.648 37.7823 121.289C37.279 120.93 36.8943 120.431 36.6769 119.855C36.4594 119.279 36.4191 118.652 36.5608 118.053C36.7026 117.454 37.0202 116.91 37.4733 116.491C37.9265 116.071 38.4949 115.794 39.1067 115.695C39.7184 115.596 40.3461 115.68 40.9101 115.935C41.4742 116.19 41.9493 116.605 42.2755 117.128C42.6016 117.651 42.7642 118.258 42.7425 118.873C42.7115 119.696 42.3535 120.473 41.7468 121.035C41.1401 121.597 40.3339 121.898 39.5045 121.871Z" fill="url(#paint9_linear)"/>
<path d="M21.27 0.200993L21.4305 0.651128L21.27 0.200993C20.0738 0.634022 18.9584 1.26117 17.9692 2.05686C16.3811 3.34066 15.1549 5.01067 14.4102 6.90428V6.94583C13.6398 8.99453 13.2795 11.1727 13.3495 13.3583C13.511 17.2495 14.3052 21.0892 15.7013 24.7289C16.7766 27.6549 18.0303 30.5133 19.4555 33.2881C26.6293 47.3595 29.309 63.5222 29.4556 74.145C29.5754 77.1654 29.3199 80.1889 28.6949 83.1473C28.327 84.5627 27.8607 85.951 27.2993 87.3023C27.1039 87.7732 26.9364 88.1333 26.8247 88.3756L26.6852 88.6457V88.7149C26.6218 88.8346 26.5883 88.9676 26.5875 89.1027C26.5929 89.3122 26.6806 89.5112 26.8318 89.6574C26.983 89.8035 27.1858 89.8853 27.3969 89.8853C27.5391 89.884 27.6786 89.8456 27.8011 89.7738C27.9236 89.7021 28.0248 89.5996 28.0947 89.4767C29.047 87.5845 29.7798 85.5913 30.279 83.5351C30.942 80.4391 31.2116 77.2729 31.0815 74.1103C30.9383 67.6771 30.16 61.2733 28.7577 54.9907C27.1067 47.2168 24.4737 39.6807 20.921 32.561C19.5249 29.8456 18.299 27.0472 17.2504 24.1819C15.9113 20.7094 15.1455 17.0452 14.9825 13.3306C14.9227 11.359 15.2424 9.3941 15.9245 7.54136C16.2401 7.1521 16.6411 6.8395 17.0969 6.62731C18.0561 6.17132 19.0654 5.82736 20.1045 5.6024C21.1443 5.36003 22.0864 5.20769 22.5889 5.13844C23.1579 5.06127 23.6865 4.80382 24.0961 4.40441C24.3479 4.16201 24.5471 3.87113 24.6815 3.54962C24.8159 3.2281 24.8826 2.88272 24.8777 2.53468C24.8752 2.39492 24.8589 2.25577 24.8289 2.1192V2.1192V2.02917C24.7341 1.6025 24.5311 1.20687 24.2393 0.879703C23.9474 0.552538 23.5763 0.304645 23.1611 0.159445C22.855 0.048357 22.5309 -0.00562718 22.205 0.000186528C21.8835 0.00873502 21.5663 0.0768295 21.27 0.200993V0.200993Z" fill="url(#paint10_linear)"/>
<path d="M46.1896 121.892C44.6683 121.968 43.14 122.01 41.6118 122.044C40.0835 122.079 38.5623 122.086 37.041 122.093H36.1198V121.179C36.1198 119.662 36.1199 118.153 36.1687 116.636C36.2176 115.119 36.2455 113.61 36.3222 112.093C36.399 110.577 36.4827 109.067 36.5874 107.551C36.6921 106.034 36.8317 104.524 37.041 103.008C37.2434 104.524 37.362 106.041 37.4876 107.551C37.6132 109.06 37.69 110.584 37.7528 112.093C37.8156 113.603 37.8714 115.119 37.9063 116.636C37.9063 117.848 37.9063 119.06 37.9481 120.272C39.1694 120.272 40.3906 120.272 41.6118 120.313C43.14 120.313 44.6683 120.389 46.1896 120.465C47.7109 120.542 49.2462 120.625 50.7675 120.729C52.2887 120.832 53.817 120.978 55.3452 121.179C53.817 121.38 52.2957 121.497 50.7675 121.629C49.2392 121.76 47.7388 121.83 46.1896 121.892Z" fill="url(#paint11_linear)"/>
<path d="M149.365 138.658H92.8958C92.6662 138.638 92.4525 138.533 92.2968 138.365C92.1411 138.196 92.0547 137.976 92.0547 137.747C92.0547 137.518 92.1411 137.298 92.2968 137.129C92.4525 136.961 92.6662 136.856 92.8958 136.836H149.365C149.492 136.825 149.62 136.841 149.741 136.882C149.862 136.922 149.973 136.988 150.067 137.073C150.161 137.159 150.236 137.263 150.288 137.379C150.339 137.495 150.366 137.62 150.366 137.747C150.366 137.874 150.339 137.999 150.288 138.115C150.236 138.231 150.161 138.335 150.067 138.421C149.973 138.507 149.862 138.572 149.741 138.613C149.62 138.653 149.492 138.669 149.365 138.658V138.658Z" fill="url(#paint12_linear)"/>
<path d="M21.8352 65.6343C21.5909 65.6343 21.3567 65.538 21.1839 65.3666C21.0112 65.1951 20.9141 64.9626 20.9141 64.7202L20.9141 8.69092C20.903 8.56466 20.9185 8.43746 20.9595 8.31745C21.0006 8.19745 21.0664 8.08726 21.1527 7.99382C21.2389 7.90039 21.3439 7.82575 21.4609 7.77471C21.5778 7.72368 21.704 7.69732 21.8317 7.69732C21.9595 7.69732 22.0858 7.72368 22.2027 7.77471C22.3196 7.82575 22.4245 7.90039 22.5108 7.99382C22.5971 8.08726 22.6629 8.19745 22.704 8.31745C22.745 8.43746 22.7606 8.56466 22.7494 8.69092L22.7494 64.7202C22.7495 64.9614 22.6534 65.1929 22.4821 65.3641C22.3109 65.5353 22.0783 65.6324 21.8352 65.6343V65.6343Z" fill="url(#paint13_linear)"/>
</g>
<defs>
<linearGradient id="paint0_linear" x1="-590180" y1="-15907.3" x2="-576911" y2="22770.4" gradientUnits="userSpaceOnUse">
<stop stop-color="#EEDEBC"/>
<stop offset="0.06" stop-color="#DDC6A3"/>
<stop offset="0.14" stop-color="#C9A885"/>
<stop offset="0.26" stop-color="#9A7A5F"/>
<stop offset="0.36" stop-color="#C9A885"/>
<stop offset="0.49" stop-color="#EEDEBC"/>
<stop offset="0.54" stop-color="#DDC6A3"/>
<stop offset="0.61" stop-color="#C9A885"/>
<stop offset="0.72" stop-color="#9A7A5F"/>
<stop offset="0.84" stop-color="#C9A885"/>
<stop offset="1" stop-color="#EEDEBC"/>
</linearGradient>
<linearGradient id="paint1_linear" x1="-125634" y1="-10904.4" x2="-110554" y2="2842.71" gradientUnits="userSpaceOnUse">
<stop stop-color="#EEDEBC"/>
<stop offset="0.06" stop-color="#DDC6A3"/>
<stop offset="0.14" stop-color="#C9A885"/>
<stop offset="0.26" stop-color="#9A7A5F"/>
<stop offset="0.36" stop-color="#C9A885"/>
<stop offset="0.49" stop-color="#EEDEBC"/>
<stop offset="0.54" stop-color="#DDC6A3"/>
<stop offset="0.61" stop-color="#C9A885"/>
<stop offset="0.72" stop-color="#9A7A5F"/>
<stop offset="0.84" stop-color="#C9A885"/>
<stop offset="1" stop-color="#EEDEBC"/>
</linearGradient>
<linearGradient id="paint2_linear" x1="-259644" y1="-20490.6" x2="-231045" y2="7454.64" gradientUnits="userSpaceOnUse">
<stop stop-color="#EEDEBC"/>
<stop offset="0.06" stop-color="#DDC6A3"/>
<stop offset="0.14" stop-color="#C9A885"/>
<stop offset="0.26" stop-color="#9A7A5F"/>
<stop offset="0.36" stop-color="#C9A885"/>
<stop offset="0.49" stop-color="#EEDEBC"/>
<stop offset="0.54" stop-color="#DDC6A3"/>
<stop offset="0.61" stop-color="#C9A885"/>
<stop offset="0.72" stop-color="#9A7A5F"/>
<stop offset="0.84" stop-color="#C9A885"/>
<stop offset="1" stop-color="#EEDEBC"/>
</linearGradient>
<linearGradient id="paint3_linear" x1="-76791.5" y1="-17940.7" x2="-61436" y2="-12442.7" gradientUnits="userSpaceOnUse">
<stop stop-color="#EEDEBC"/>
<stop offset="0.06" stop-color="#DDC6A3"/>
<stop offset="0.14" stop-color="#C9A885"/>
<stop offset="0.26" stop-color="#9A7A5F"/>
<stop offset="0.36" stop-color="#C9A885"/>
<stop offset="0.49" stop-color="#EEDEBC"/>
<stop offset="0.54" stop-color="#DDC6A3"/>
<stop offset="0.61" stop-color="#C9A885"/>
<stop offset="0.72" stop-color="#9A7A5F"/>
<stop offset="0.84" stop-color="#C9A885"/>
<stop offset="1" stop-color="#EEDEBC"/>
</linearGradient>
<linearGradient id="paint4_linear" x1="-149251" y1="-36020" x2="-119867" y2="-26227.3" gradientUnits="userSpaceOnUse">
<stop stop-color="#EEDEBC"/>
<stop offset="0.06" stop-color="#DDC6A3"/>
<stop offset="0.14" stop-color="#C9A885"/>
<stop offset="0.26" stop-color="#9A7A5F"/>
<stop offset="0.36" stop-color="#C9A885"/>
<stop offset="0.49" stop-color="#EEDEBC"/>
<stop offset="0.54" stop-color="#DDC6A3"/>
<stop offset="0.61" stop-color="#C9A885"/>
<stop offset="0.72" stop-color="#9A7A5F"/>
<stop offset="0.84" stop-color="#C9A885"/>
<stop offset="1" stop-color="#EEDEBC"/>
</linearGradient>
<linearGradient id="paint5_linear" x1="-275586" y1="-28686.8" x2="-237559" y2="-234.126" gradientUnits="userSpaceOnUse">
<stop stop-color="#EEDEBC"/>
<stop offset="0.06" stop-color="#DDC6A3"/>
<stop offset="0.14" stop-color="#C9A885"/>
<stop offset="0.26" stop-color="#9A7A5F"/>
<stop offset="0.36" stop-color="#C9A885"/>
<stop offset="0.49" stop-color="#EEDEBC"/>
<stop offset="0.54" stop-color="#DDC6A3"/>
<stop offset="0.61" stop-color="#C9A885"/>
<stop offset="0.72" stop-color="#9A7A5F"/>
<stop offset="0.84" stop-color="#C9A885"/>
<stop offset="1" stop-color="#EEDEBC"/>
</linearGradient>
<linearGradient id="paint6_linear" x1="-205575" y1="-38287.5" x2="-167569" y2="-22652.3" gradientUnits="userSpaceOnUse">
<stop stop-color="#EEDEBC"/>
<stop offset="0.06" stop-color="#DDC6A3"/>
<stop offset="0.14" stop-color="#C9A885"/>
<stop offset="0.26" stop-color="#9A7A5F"/>
<stop offset="0.36" stop-color="#C9A885"/>
<stop offset="0.49" stop-color="#EEDEBC"/>
<stop offset="0.54" stop-color="#DDC6A3"/>
<stop offset="0.61" stop-color="#C9A885"/>
<stop offset="0.72" stop-color="#9A7A5F"/>
<stop offset="0.84" stop-color="#C9A885"/>
<stop offset="1" stop-color="#EEDEBC"/>
</linearGradient>
<linearGradient id="paint7_linear" x1="-151097" y1="-19421.4" x2="-126805" y2="-4931.18" gradientUnits="userSpaceOnUse">
<stop stop-color="#EEDEBC"/>
<stop offset="0.06" stop-color="#DDC6A3"/>
<stop offset="0.14" stop-color="#C9A885"/>
<stop offset="0.26" stop-color="#9A7A5F"/>
<stop offset="0.36" stop-color="#C9A885"/>
<stop offset="0.49" stop-color="#EEDEBC"/>
<stop offset="0.54" stop-color="#DDC6A3"/>
<stop offset="0.61" stop-color="#C9A885"/>
<stop offset="0.72" stop-color="#9A7A5F"/>
<stop offset="0.84" stop-color="#C9A885"/>
<stop offset="1" stop-color="#EEDEBC"/>
</linearGradient>
<linearGradient id="paint8_linear" x1="-48548.4" y1="-7014.97" x2="-39887.8" y2="-2245.93" gradientUnits="userSpaceOnUse">
<stop stop-color="#EEDEBC"/>
<stop offset="0.06" stop-color="#DDC6A3"/>
<stop offset="0.14" stop-color="#C9A885"/>
<stop offset="0.26" stop-color="#9A7A5F"/>
<stop offset="0.36" stop-color="#C9A885"/>
<stop offset="0.49" stop-color="#EEDEBC"/>
<stop offset="0.54" stop-color="#DDC6A3"/>
<stop offset="0.61" stop-color="#C9A885"/>
<stop offset="0.72" stop-color="#9A7A5F"/>
<stop offset="0.84" stop-color="#C9A885"/>
<stop offset="1" stop-color="#EEDEBC"/>
</linearGradient>
<linearGradient id="paint9_linear" x1="-36296.8" y1="-5370.48" x2="-29719.2" y2="-1615.95" gradientUnits="userSpaceOnUse">
<stop stop-color="#EEDEBC"/>
<stop offset="0.06" stop-color="#DDC6A3"/>
<stop offset="0.14" stop-color="#C9A885"/>
<stop offset="0.26" stop-color="#9A7A5F"/>
<stop offset="0.36" stop-color="#C9A885"/>
<stop offset="0.49" stop-color="#EEDEBC"/>
<stop offset="0.54" stop-color="#DDC6A3"/>
<stop offset="0.61" stop-color="#C9A885"/>
<stop offset="0.72" stop-color="#9A7A5F"/>
<stop offset="0.84" stop-color="#C9A885"/>
<stop offset="1" stop-color="#EEDEBC"/>
</linearGradient>
<linearGradient id="paint10_linear" x1="-111363" y1="-85740.9" x2="-86936.7" y2="-83005.4" gradientUnits="userSpaceOnUse">
<stop stop-color="#EEDEBC"/>
<stop offset="0.06" stop-color="#DDC6A3"/>
<stop offset="0.14" stop-color="#C9A885"/>
<stop offset="0.26" stop-color="#9A7A5F"/>
<stop offset="0.36" stop-color="#C9A885"/>
<stop offset="0.49" stop-color="#EEDEBC"/>
<stop offset="0.54" stop-color="#DDC6A3"/>
<stop offset="0.61" stop-color="#C9A885"/>
<stop offset="0.72" stop-color="#9A7A5F"/>
<stop offset="0.84" stop-color="#C9A885"/>
<stop offset="1" stop-color="#EEDEBC"/>
</linearGradient>
<linearGradient id="paint11_linear" x1="-121627" y1="-16829" x2="-101443" y2="-5312.77" gradientUnits="userSpaceOnUse">
<stop stop-color="#EEDEBC"/>
<stop offset="0.06" stop-color="#DDC6A3"/>
<stop offset="0.14" stop-color="#C9A885"/>
<stop offset="0.26" stop-color="#9A7A5F"/>
<stop offset="0.36" stop-color="#C9A885"/>
<stop offset="0.49" stop-color="#EEDEBC"/>
<stop offset="0.54" stop-color="#DDC6A3"/>
<stop offset="0.61" stop-color="#C9A885"/>
<stop offset="0.72" stop-color="#9A7A5F"/>
<stop offset="0.84" stop-color="#C9A885"/>
<stop offset="1" stop-color="#EEDEBC"/>
</linearGradient>
<linearGradient id="paint12_linear" x1="-378300" y1="-1529.71" x2="-378052" y2="2948.35" gradientUnits="userSpaceOnUse">
<stop stop-color="#EEDEBC"/>
<stop offset="0.06" stop-color="#DDC6A3"/>
<stop offset="0.14" stop-color="#C9A885"/>
<stop offset="0.26" stop-color="#9A7A5F"/>
<stop offset="0.36" stop-color="#C9A885"/>
<stop offset="0.49" stop-color="#EEDEBC"/>
<stop offset="0.54" stop-color="#DDC6A3"/>
<stop offset="0.61" stop-color="#C9A885"/>
<stop offset="0.72" stop-color="#9A7A5F"/>
<stop offset="0.84" stop-color="#C9A885"/>
<stop offset="1" stop-color="#EEDEBC"/>
</linearGradient>
<linearGradient id="paint13_linear" x1="-7047.67" y1="-55671.5" x2="-4484.74" y2="-55625.3" gradientUnits="userSpaceOnUse">
<stop stop-color="#EEDEBC"/>
<stop offset="0.06" stop-color="#DDC6A3"/>
<stop offset="0.14" stop-color="#C9A885"/>
<stop offset="0.26" stop-color="#9A7A5F"/>
<stop offset="0.36" stop-color="#C9A885"/>
<stop offset="0.49" stop-color="#EEDEBC"/>
<stop offset="0.54" stop-color="#DDC6A3"/>
<stop offset="0.61" stop-color="#C9A885"/>
<stop offset="0.72" stop-color="#9A7A5F"/>
<stop offset="0.84" stop-color="#C9A885"/>
<stop offset="1" stop-color="#EEDEBC"/>
</linearGradient>
</defs>
</svg>
