<svg width="160" height="160" viewBox="0 0 160 160" fill="none" xmlns="http://www.w3.org/2000/svg">
<path d="M138.304 0.140003L138.145 0.586627L138.304 0.140003C139.496 0.571695 140.606 1.20408 141.587 2.0102C143.163 3.30391 144.38 4.98681 145.119 6.89504V6.93691C145.884 9.0037 146.241 11.2011 146.171 13.4059C146.014 17.3252 145.225 21.1927 143.837 24.8574C142.777 27.8088 141.533 30.6896 140.112 33.4826C132.993 47.6626 130.334 63.957 130.188 74.6549C130.065 77.7105 130.321 80.7698 130.95 83.7616C131.319 85.1869 131.781 86.5856 132.335 87.9486C132.529 88.4231 132.695 88.786 132.813 89.0302L132.945 89.3024L132.979 89.3722C133.029 89.4638 133.061 89.5645 133.072 89.6684C133.084 89.7724 133.075 89.8777 133.046 89.9782C133.017 90.0786 132.969 90.1724 132.904 90.254C132.839 90.3356 132.759 90.4035 132.668 90.4538C132.548 90.5172 132.415 90.5507 132.28 90.5516C132.138 90.5517 131.999 90.5136 131.878 90.4412C131.756 90.3687 131.655 90.2646 131.587 90.1398C130.636 88.2349 129.907 86.2258 129.413 84.1524C128.755 81.0348 128.488 77.8465 128.616 74.6618C128.759 68.1766 129.531 61.721 130.922 55.3876C132.565 47.5594 135.178 39.9702 138.699 32.7987C140.09 30.0674 141.307 27.2494 142.342 24.3619C143.673 20.8609 144.433 17.1657 144.592 13.4198C144.655 11.435 144.338 9.4565 143.657 7.59288C143.347 7.19627 142.948 6.87845 142.494 6.66479C141.548 6.21159 140.554 5.86971 139.53 5.64593C138.505 5.40169 137.563 5.25516 137.065 5.18538C136.5 5.10236 135.977 4.84091 135.569 4.43869C135.321 4.19295 135.125 3.89955 134.992 3.5759C134.858 3.25224 134.791 2.90492 134.793 2.55453C134.796 2.41597 134.812 2.27798 134.842 2.14279V2.04512C134.937 1.61542 135.138 1.21705 135.428 0.887458C135.717 0.557862 136.085 0.307857 136.497 0.160958C136.801 0.0490122 137.122 -0.00543138 137.446 0.000427211C137.738 -0.00256907 138.028 0.044638 138.304 0.140003Z" fill="url(#paint0_linear)"/>
<path d="M121.685 87.0971C121.976 86.8965 122.299 86.7478 122.64 86.6575C123.467 86.4402 124.343 86.5268 125.112 86.9017C125.473 87.0605 125.789 87.3079 126.031 87.6211C126.273 87.9343 126.433 88.3036 126.497 88.6952C126.498 88.9254 126.45 89.153 126.355 89.3625C126.261 89.5721 126.123 89.7587 125.95 89.9094C125.701 90.0926 125.4 90.1927 125.092 90.1956C124.496 90.1956 124.212 89.7978 123.707 89.6582C121.941 89.1837 122.225 90.7119 122.612 91.2772C122.894 91.6527 123.269 91.9465 123.7 92.1286C128 94.1314 129.129 88.7929 129.33 86.1271C129.53 83.4614 129.046 80.5794 129.627 77.9067C129.932 76.511 130.86 74.885 132.397 74.4175L132.522 75.0037V75.5829C131.889 76.3016 131.402 77.1386 131.089 78.0462C130.396 79.9095 130.361 81.9402 130.327 83.9081C130.339 85.5873 130.183 87.2635 129.863 88.9115C129.551 90.3072 129.17 92.0448 128.028 93.0985C127.099 93.8849 125.915 94.2973 124.703 94.2561C123.491 94.2148 122.337 93.723 121.463 92.8752C119.794 91.2283 119.676 88.4858 121.685 87.0971Z" fill="url(#paint1_linear)"/>
<path d="M147.701 80.014C147.552 80.7792 147.215 81.4947 146.722 82.0954C146.229 82.6962 145.594 83.1633 144.876 83.4543C143.339 84.0196 141.261 83.5101 140.499 82.1424C140.337 81.7974 140.266 81.416 140.293 81.0351C140.319 80.6542 140.443 80.2867 140.652 79.9682C140.861 79.6496 141.148 79.3907 141.485 79.2166C141.822 79.0425 142.198 78.959 142.577 78.9742C143.505 79.044 144.384 79.6721 145.292 79.5046C145.652 79.4409 145.983 79.2643 146.238 78.9999C146.493 78.7355 146.658 78.3969 146.711 78.0321C146.77 77.3114 146.582 76.592 146.178 75.9945C143.359 71.2003 136.019 71.4655 132.889 75.4571C130.029 79.0998 131.248 83.8312 132.744 88.1019C133.54 90.3769 136.698 92.903 139.184 90.9351C139.426 90.7467 139.752 90.5164 140.022 90.6769C140.119 90.7423 140.192 90.8379 140.229 90.9491C140.393 91.3377 140.465 91.7592 140.439 92.1805C140.414 92.6018 140.293 93.0115 140.084 93.3775C139.493 94.3815 138.553 95.1278 137.446 95.471C136.947 95.6245 135.576 95.4012 135.25 95.6525C134.925 95.9037 135.077 97.6832 135.07 98.1228C134.973 102.31 135.389 107.048 132.231 110.426C131.539 111.123 130.978 110.328 130.846 109.672C130.659 108.325 129.967 107.013 129.897 105.666C129.413 105.618 128.873 105.806 128.346 105.75C127.743 105.68 127.161 105.485 126.636 105.178C125.814 104.729 125.175 104.005 124.829 103.13C124.484 102.255 124.454 101.286 124.745 100.391C124.776 100.324 124.825 100.267 124.886 100.228C124.947 100.188 125.019 100.167 125.092 100.167C125.165 100.167 125.236 100.188 125.297 100.228C125.359 100.267 125.407 100.324 125.438 100.391C126.525 102.163 128.616 100.565 129.157 99.693C129.746 98.6589 130.211 97.5578 130.542 96.4131C131.162 94.2091 131.195 91.8793 130.638 89.6581C129.316 85.7223 128.561 81.5492 129.461 77.5925C129.77 76.0608 130.472 74.6373 131.496 73.4633C132.52 72.2893 133.831 71.4057 135.299 70.9003C136.532 70.5379 137.826 70.4357 139.101 70.6002C139.728 70.676 140.349 70.802 140.957 70.977C145.202 72.2052 148.546 76.2038 147.701 80.014Z" fill="url(#paint2_linear)"/>
<path d="M86.4576 122.184C86.2613 122.479 86.114 122.805 86.0214 123.147C85.8058 123.98 85.8917 124.864 86.2638 125.639C86.4219 126.002 86.6674 126.32 86.9782 126.564C87.2889 126.807 87.655 126.969 88.0434 127.034C88.2719 127.036 88.498 126.987 88.706 126.892C88.914 126.797 89.0991 126.657 89.2484 126.483C89.4332 126.233 89.5328 125.93 89.5323 125.618C89.5323 125.018 89.1445 124.732 89.006 124.222C88.5282 122.443 90.0447 122.729 90.6056 123.112C90.977 123.4 91.268 123.78 91.4505 124.215C93.4379 128.549 88.1404 129.686 85.502 129.889C82.8636 130.091 79.9621 129.602 77.3376 130.189C75.9526 130.496 74.3391 131.424 73.8751 132.98L74.4568 133.106C74.6507 133.106 74.8377 133.106 75.0316 133.106C75.7448 132.468 76.5754 131.977 77.4761 131.661C79.325 130.963 81.3401 130.963 83.293 130.893C84.9594 130.906 86.6228 130.749 88.2581 130.426C89.6431 130.112 91.3743 129.728 92.413 128.577C93.1944 127.642 93.6048 126.449 93.5651 125.227C93.5255 124.006 93.0386 122.842 92.1984 121.961C90.5572 120.244 87.8357 120.126 86.4576 122.184Z" fill="url(#paint3_linear)"/>
<path d="M79.429 148.388C80.1888 148.239 80.8993 147.9 81.4957 147.403C82.0921 146.905 82.5553 146.265 82.843 145.541C83.4039 143.992 82.8983 141.898 81.548 141.131C81.2058 140.965 80.8268 140.891 80.448 140.917C80.0692 140.943 79.7036 141.068 79.3868 141.279C79.0701 141.49 78.813 141.78 78.6408 142.121C78.4685 142.462 78.387 142.842 78.4041 143.224C78.4664 144.159 79.0966 145.045 78.9304 145.96C78.8658 146.323 78.6892 146.657 78.4257 146.914C78.1622 147.171 77.8251 147.337 77.4623 147.39C76.7471 147.449 76.0335 147.26 75.4403 146.853C70.6829 144.006 70.946 136.616 74.914 133.461C78.5218 130.579 83.1823 131.808 87.4619 133.315C89.7194 134.11 92.2193 137.299 90.2734 139.805C90.0864 140.049 89.8509 140.377 90.0102 140.649C90.0751 140.747 90.17 140.82 90.2803 140.858C90.6658 141.024 91.0842 141.096 91.5023 141.071C91.9205 141.045 92.3271 140.923 92.6901 140.712C93.6882 140.119 94.4294 139.17 94.7676 138.053C94.92 137.551 94.6984 136.169 94.9477 135.841C95.197 135.513 96.9628 135.667 97.3991 135.66C101.554 135.562 106.263 135.981 109.615 132.798C110.307 132.101 109.511 131.535 108.86 131.403C107.523 131.214 106.221 130.517 104.885 130.447C104.836 129.958 105.03 129.414 104.968 128.884C104.905 128.274 104.711 127.686 104.4 127.16C103.955 126.332 103.236 125.688 102.368 125.34C101.499 124.991 100.538 124.961 99.6496 125.255C99.5833 125.285 99.5272 125.335 99.4878 125.396C99.4484 125.458 99.4274 125.53 99.4274 125.604C99.4274 125.677 99.4484 125.749 99.4878 125.811C99.5272 125.873 99.5833 125.922 99.6496 125.953C101.402 127.048 99.8228 129.156 98.9572 129.7C97.931 130.294 96.8384 130.762 95.7024 131.096C93.5177 131.721 91.2079 131.755 89.0061 131.193C85.0935 129.861 80.9525 129.1 77.033 130C74.1314 130.698 71.3407 132.722 70.385 135.89C70.0254 137.133 69.9241 138.437 70.0873 139.721C70.1615 140.354 70.2889 140.98 70.4681 141.591C71.68 145.841 75.6826 149.219 79.429 148.388Z" fill="url(#paint4_linear)"/>
<path d="M85.5229 160C86.2154 153.35 93.2926 151.235 97.9877 150.573C102.824 149.961 107.338 147.804 110.868 144.418C123.104 132.331 110.404 117.376 110.404 117.376C110.404 117.376 116.172 138.151 102.62 143.196C102.62 143.196 93.5419 147.055 83.9233 140.021C83.9233 140.021 86.0007 145.974 92.2677 147.104C88.8815 148.395 84.0825 151.319 85.5229 160Z" fill="url(#paint5_linear)"/>
<path d="M160 89.3865C153.366 89.6377 150.776 96.5742 149.779 101.25C148.836 106.084 146.38 110.487 142.771 113.811C129.939 125.248 116.034 111.417 116.034 111.417C116.034 111.417 136.185 118.696 142.12 105.43C142.12 105.43 146.586 96.5812 140.306 86.4067C140.306 86.4067 146.046 88.905 146.718 95.2902C148.269 91.9336 151.51 87.293 160 89.3865Z" fill="url(#paint6_linear)"/>
<path d="M140.326 118.625C137.002 123.859 127.765 122.666 121.054 120.935C120.244 120.719 119.475 120.503 118.769 120.293C119.018 120.991 119.275 121.745 119.51 122.533C121.588 129.198 123.208 138.458 118.187 142.073C126.774 143.741 129.066 135.715 123.125 124.48C134.544 129.896 142.404 127.188 140.326 118.625Z" fill="url(#paint7_linear)"/>
<path d="M138.187 135.311C136.012 132.261 130.334 131.04 130.334 131.04C130.334 131.04 131.816 136.699 134.946 138.716C135.409 139.044 135.973 139.194 136.537 139.139C137.1 139.084 137.625 138.827 138.017 138.416C138.409 138.004 138.642 137.465 138.673 136.895C138.704 136.325 138.531 135.763 138.187 135.311V135.311Z" fill="url(#paint8_linear)"/>
<path d="M121.872 120.496C121.851 121.115 121.648 121.715 121.289 122.218C120.93 122.721 120.431 123.106 119.855 123.323C119.279 123.541 118.652 123.581 118.053 123.439C117.454 123.298 116.911 122.98 116.491 122.527C116.071 122.074 115.794 121.505 115.695 120.894C115.596 120.282 115.68 119.654 115.935 119.09C116.19 118.526 116.605 118.051 117.128 117.725C117.651 117.399 118.258 117.236 118.873 117.258C119.696 117.289 120.473 117.647 121.035 118.253C121.597 118.86 121.898 119.666 121.872 120.496Z" fill="url(#paint9_linear)"/>
<path d="M0.201237 138.73L0.651372 138.57L0.201237 138.73C0.634266 139.926 1.26142 141.042 2.0571 142.031C3.34091 143.619 5.01091 144.845 6.90453 145.59H6.94607C8.99477 146.36 11.1729 146.721 13.3585 146.651C17.2497 146.489 21.0894 145.695 24.7292 144.299C27.6551 143.223 30.5135 141.97 33.2884 140.544C47.3598 133.371 63.5225 130.691 74.1452 130.544C77.1656 130.425 80.1892 130.68 83.1476 131.305C84.5629 131.673 85.9512 132.139 87.3025 132.701C87.7734 132.896 88.1335 133.064 88.3759 133.175L88.6459 133.315H88.7152C88.8348 133.378 88.9678 133.412 89.103 133.413C89.3124 133.407 89.5114 133.319 89.6576 133.168C89.8038 133.017 89.8856 132.814 89.8855 132.603C89.8842 132.461 89.8458 132.321 89.7741 132.199C89.7024 132.076 89.5999 131.975 89.4769 131.905C87.5848 130.953 85.5915 130.22 83.5354 129.721C80.4394 129.058 77.2731 128.788 74.1106 128.919C67.6773 129.062 61.2735 129.84 54.991 131.242C47.217 132.893 39.6809 135.526 32.5612 139.079C29.8458 140.475 27.0475 141.701 24.1821 142.75C20.7096 144.089 17.0454 144.855 13.3308 145.018C11.3592 145.077 9.39435 144.758 7.5416 144.075C7.15234 143.76 6.83974 143.359 6.62756 142.903C6.17156 141.944 5.82761 140.935 5.60264 139.895C5.36027 138.856 5.20794 137.914 5.13869 137.411C5.06152 136.842 4.80406 136.313 4.40465 135.904C4.16226 135.652 3.87137 135.453 3.54986 135.319C3.22834 135.184 2.88297 135.117 2.53492 135.122C2.39517 135.125 2.25601 135.141 2.11945 135.171V135.171H2.02942C1.60275 135.266 1.20711 135.469 0.879948 135.761C0.552783 136.053 0.30489 136.424 0.15969 136.839C0.0486011 137.145 -0.00538304 137.469 0.000430669 137.795C0.00897916 138.117 0.0770736 138.434 0.201237 138.73V138.73Z" fill="url(#paint10_linear)"/>
<path d="M121.892 113.81C121.968 115.332 122.01 116.86 122.045 118.388C122.079 119.916 122.086 121.438 122.093 122.959V123.88H121.179C119.662 123.88 118.153 123.88 116.636 123.831C115.12 123.782 113.61 123.755 112.093 123.678C110.577 123.601 109.067 123.517 107.551 123.413C106.034 123.308 104.525 123.168 103.008 122.959C104.525 122.757 106.041 122.638 107.551 122.512C109.06 122.387 110.584 122.31 112.093 122.247C113.603 122.184 115.12 122.129 116.636 122.094C117.848 122.094 119.06 122.094 120.272 122.052C120.272 120.831 120.272 119.609 120.313 118.388C120.313 116.86 120.389 115.332 120.466 113.81C120.542 112.289 120.625 110.754 120.729 109.233C120.833 107.711 120.978 106.183 121.179 104.655C121.38 106.183 121.497 107.704 121.629 109.233C121.761 110.761 121.83 112.261 121.892 113.81Z" fill="url(#paint11_linear)"/>
<path d="M138.658 10.6355L138.658 67.1043C138.638 67.3339 138.533 67.5476 138.365 67.7033C138.196 67.859 137.976 67.9454 137.747 67.9454C137.518 67.9454 137.298 67.859 137.129 67.7033C136.961 67.5476 136.856 67.3339 136.836 67.1043V10.6355C136.825 10.5083 136.841 10.3801 136.881 10.2592C136.922 10.1383 136.987 10.0272 137.073 9.93306C137.159 9.83891 137.263 9.7637 137.379 9.71226C137.495 9.66083 137.62 9.63428 137.747 9.63428C137.874 9.63428 137.999 9.66083 138.115 9.71226C138.231 9.7637 138.335 9.83891 138.421 9.93306C138.506 10.0272 138.572 10.1383 138.612 10.2592C138.653 10.3801 138.669 10.5083 138.658 10.6355V10.6355Z" fill="url(#paint12_linear)"/>
<path d="M65.6345 138.165C65.6345 138.409 65.5382 138.643 65.3668 138.816C65.1954 138.989 64.9629 139.086 64.7204 139.086H8.69116C8.5649 139.097 8.43771 139.082 8.3177 139.04C8.19769 138.999 8.0875 138.934 7.99407 138.847C7.90063 138.761 7.826 138.656 7.77496 138.539C7.72392 138.422 7.69757 138.296 7.69757 138.168C7.69757 138.041 7.72392 137.914 7.77496 137.797C7.826 137.68 7.90063 137.575 7.99407 137.489C8.0875 137.403 8.19769 137.337 8.3177 137.296C8.43771 137.255 8.5649 137.239 8.69116 137.251H64.7204C64.9617 137.251 65.1931 137.347 65.3644 137.518C65.5356 137.689 65.6327 137.922 65.6345 138.165V138.165Z" fill="url(#paint13_linear)"/>
<defs>
<linearGradient id="paint0_linear" x1="-15907.3" y1="590340" x2="22770.4" y2="577071" gradientUnits="userSpaceOnUse">
<stop stop-color="#EEDEBC"/>
<stop offset="0.06" stop-color="#DDC6A3"/>
<stop offset="0.14" stop-color="#C9A885"/>
<stop offset="0.26" stop-color="#9A7A5F"/>
<stop offset="0.36" stop-color="#C9A885"/>
<stop offset="0.49" stop-color="#EEDEBC"/>
<stop offset="0.54" stop-color="#DDC6A3"/>
<stop offset="0.61" stop-color="#C9A885"/>
<stop offset="0.72" stop-color="#9A7A5F"/>
<stop offset="0.84" stop-color="#C9A885"/>
<stop offset="1" stop-color="#EEDEBC"/>
</linearGradient>
<linearGradient id="paint1_linear" x1="-10904.4" y1="125794" x2="2842.71" y2="110714" gradientUnits="userSpaceOnUse">
<stop stop-color="#EEDEBC"/>
<stop offset="0.06" stop-color="#DDC6A3"/>
<stop offset="0.14" stop-color="#C9A885"/>
<stop offset="0.26" stop-color="#9A7A5F"/>
<stop offset="0.36" stop-color="#C9A885"/>
<stop offset="0.49" stop-color="#EEDEBC"/>
<stop offset="0.54" stop-color="#DDC6A3"/>
<stop offset="0.61" stop-color="#C9A885"/>
<stop offset="0.72" stop-color="#9A7A5F"/>
<stop offset="0.84" stop-color="#C9A885"/>
<stop offset="1" stop-color="#EEDEBC"/>
</linearGradient>
<linearGradient id="paint2_linear" x1="-20490.6" y1="259804" x2="7454.64" y2="231205" gradientUnits="userSpaceOnUse">
<stop stop-color="#EEDEBC"/>
<stop offset="0.06" stop-color="#DDC6A3"/>
<stop offset="0.14" stop-color="#C9A885"/>
<stop offset="0.26" stop-color="#9A7A5F"/>
<stop offset="0.36" stop-color="#C9A885"/>
<stop offset="0.49" stop-color="#EEDEBC"/>
<stop offset="0.54" stop-color="#DDC6A3"/>
<stop offset="0.61" stop-color="#C9A885"/>
<stop offset="0.72" stop-color="#9A7A5F"/>
<stop offset="0.84" stop-color="#C9A885"/>
<stop offset="1" stop-color="#EEDEBC"/>
</linearGradient>
<linearGradient id="paint3_linear" x1="-17940.7" y1="76951.5" x2="-12442.7" y2="61596" gradientUnits="userSpaceOnUse">
<stop stop-color="#EEDEBC"/>
<stop offset="0.06" stop-color="#DDC6A3"/>
<stop offset="0.14" stop-color="#C9A885"/>
<stop offset="0.26" stop-color="#9A7A5F"/>
<stop offset="0.36" stop-color="#C9A885"/>
<stop offset="0.49" stop-color="#EEDEBC"/>
<stop offset="0.54" stop-color="#DDC6A3"/>
<stop offset="0.61" stop-color="#C9A885"/>
<stop offset="0.72" stop-color="#9A7A5F"/>
<stop offset="0.84" stop-color="#C9A885"/>
<stop offset="1" stop-color="#EEDEBC"/>
</linearGradient>
<linearGradient id="paint4_linear" x1="-36020" y1="149411" x2="-26227.3" y2="120027" gradientUnits="userSpaceOnUse">
<stop stop-color="#EEDEBC"/>
<stop offset="0.06" stop-color="#DDC6A3"/>
<stop offset="0.14" stop-color="#C9A885"/>
<stop offset="0.26" stop-color="#9A7A5F"/>
<stop offset="0.36" stop-color="#C9A885"/>
<stop offset="0.49" stop-color="#EEDEBC"/>
<stop offset="0.54" stop-color="#DDC6A3"/>
<stop offset="0.61" stop-color="#C9A885"/>
<stop offset="0.72" stop-color="#9A7A5F"/>
<stop offset="0.84" stop-color="#C9A885"/>
<stop offset="1" stop-color="#EEDEBC"/>
</linearGradient>
<linearGradient id="paint5_linear" x1="-28686.8" y1="275746" x2="-234.126" y2="237719" gradientUnits="userSpaceOnUse">
<stop stop-color="#EEDEBC"/>
<stop offset="0.06" stop-color="#DDC6A3"/>
<stop offset="0.14" stop-color="#C9A885"/>
<stop offset="0.26" stop-color="#9A7A5F"/>
<stop offset="0.36" stop-color="#C9A885"/>
<stop offset="0.49" stop-color="#EEDEBC"/>
<stop offset="0.54" stop-color="#DDC6A3"/>
<stop offset="0.61" stop-color="#C9A885"/>
<stop offset="0.72" stop-color="#9A7A5F"/>
<stop offset="0.84" stop-color="#C9A885"/>
<stop offset="1" stop-color="#EEDEBC"/>
</linearGradient>
<linearGradient id="paint6_linear" x1="-38287.5" y1="205735" x2="-22652.3" y2="167729" gradientUnits="userSpaceOnUse">
<stop stop-color="#EEDEBC"/>
<stop offset="0.06" stop-color="#DDC6A3"/>
<stop offset="0.14" stop-color="#C9A885"/>
<stop offset="0.26" stop-color="#9A7A5F"/>
<stop offset="0.36" stop-color="#C9A885"/>
<stop offset="0.49" stop-color="#EEDEBC"/>
<stop offset="0.54" stop-color="#DDC6A3"/>
<stop offset="0.61" stop-color="#C9A885"/>
<stop offset="0.72" stop-color="#9A7A5F"/>
<stop offset="0.84" stop-color="#C9A885"/>
<stop offset="1" stop-color="#EEDEBC"/>
</linearGradient>
<linearGradient id="paint7_linear" x1="-19421.4" y1="151257" x2="-4931.18" y2="126965" gradientUnits="userSpaceOnUse">
<stop stop-color="#EEDEBC"/>
<stop offset="0.06" stop-color="#DDC6A3"/>
<stop offset="0.14" stop-color="#C9A885"/>
<stop offset="0.26" stop-color="#9A7A5F"/>
<stop offset="0.36" stop-color="#C9A885"/>
<stop offset="0.49" stop-color="#EEDEBC"/>
<stop offset="0.54" stop-color="#DDC6A3"/>
<stop offset="0.61" stop-color="#C9A885"/>
<stop offset="0.72" stop-color="#9A7A5F"/>
<stop offset="0.84" stop-color="#C9A885"/>
<stop offset="1" stop-color="#EEDEBC"/>
</linearGradient>
<linearGradient id="paint8_linear" x1="-7014.97" y1="48708.4" x2="-2245.93" y2="40047.8" gradientUnits="userSpaceOnUse">
<stop stop-color="#EEDEBC"/>
<stop offset="0.06" stop-color="#DDC6A3"/>
<stop offset="0.14" stop-color="#C9A885"/>
<stop offset="0.26" stop-color="#9A7A5F"/>
<stop offset="0.36" stop-color="#C9A885"/>
<stop offset="0.49" stop-color="#EEDEBC"/>
<stop offset="0.54" stop-color="#DDC6A3"/>
<stop offset="0.61" stop-color="#C9A885"/>
<stop offset="0.72" stop-color="#9A7A5F"/>
<stop offset="0.84" stop-color="#C9A885"/>
<stop offset="1" stop-color="#EEDEBC"/>
</linearGradient>
<linearGradient id="paint9_linear" x1="-5370.48" y1="36456.8" x2="-1615.95" y2="29879.2" gradientUnits="userSpaceOnUse">
<stop stop-color="#EEDEBC"/>
<stop offset="0.06" stop-color="#DDC6A3"/>
<stop offset="0.14" stop-color="#C9A885"/>
<stop offset="0.26" stop-color="#9A7A5F"/>
<stop offset="0.36" stop-color="#C9A885"/>
<stop offset="0.49" stop-color="#EEDEBC"/>
<stop offset="0.54" stop-color="#DDC6A3"/>
<stop offset="0.61" stop-color="#C9A885"/>
<stop offset="0.72" stop-color="#9A7A5F"/>
<stop offset="0.84" stop-color="#C9A885"/>
<stop offset="1" stop-color="#EEDEBC"/>
</linearGradient>
<linearGradient id="paint10_linear" x1="-85740.9" y1="111523" x2="-83005.4" y2="87096.7" gradientUnits="userSpaceOnUse">
<stop stop-color="#EEDEBC"/>
<stop offset="0.06" stop-color="#DDC6A3"/>
<stop offset="0.14" stop-color="#C9A885"/>
<stop offset="0.26" stop-color="#9A7A5F"/>
<stop offset="0.36" stop-color="#C9A885"/>
<stop offset="0.49" stop-color="#EEDEBC"/>
<stop offset="0.54" stop-color="#DDC6A3"/>
<stop offset="0.61" stop-color="#C9A885"/>
<stop offset="0.72" stop-color="#9A7A5F"/>
<stop offset="0.84" stop-color="#C9A885"/>
<stop offset="1" stop-color="#EEDEBC"/>
</linearGradient>
<linearGradient id="paint11_linear" x1="-16829" y1="121787" x2="-5312.77" y2="101603" gradientUnits="userSpaceOnUse">
<stop stop-color="#EEDEBC"/>
<stop offset="0.06" stop-color="#DDC6A3"/>
<stop offset="0.14" stop-color="#C9A885"/>
<stop offset="0.26" stop-color="#9A7A5F"/>
<stop offset="0.36" stop-color="#C9A885"/>
<stop offset="0.49" stop-color="#EEDEBC"/>
<stop offset="0.54" stop-color="#DDC6A3"/>
<stop offset="0.61" stop-color="#C9A885"/>
<stop offset="0.72" stop-color="#9A7A5F"/>
<stop offset="0.84" stop-color="#C9A885"/>
<stop offset="1" stop-color="#EEDEBC"/>
</linearGradient>
<linearGradient id="paint12_linear" x1="-1529.71" y1="378460" x2="2948.35" y2="378212" gradientUnits="userSpaceOnUse">
<stop stop-color="#EEDEBC"/>
<stop offset="0.06" stop-color="#DDC6A3"/>
<stop offset="0.14" stop-color="#C9A885"/>
<stop offset="0.26" stop-color="#9A7A5F"/>
<stop offset="0.36" stop-color="#C9A885"/>
<stop offset="0.49" stop-color="#EEDEBC"/>
<stop offset="0.54" stop-color="#DDC6A3"/>
<stop offset="0.61" stop-color="#C9A885"/>
<stop offset="0.72" stop-color="#9A7A5F"/>
<stop offset="0.84" stop-color="#C9A885"/>
<stop offset="1" stop-color="#EEDEBC"/>
</linearGradient>
<linearGradient id="paint13_linear" x1="-55671.5" y1="7207.67" x2="-55625.3" y2="4644.74" gradientUnits="userSpaceOnUse">
<stop stop-color="#EEDEBC"/>
<stop offset="0.06" stop-color="#DDC6A3"/>
<stop offset="0.14" stop-color="#C9A885"/>
<stop offset="0.26" stop-color="#9A7A5F"/>
<stop offset="0.36" stop-color="#C9A885"/>
<stop offset="0.49" stop-color="#EEDEBC"/>
<stop offset="0.54" stop-color="#DDC6A3"/>
<stop offset="0.61" stop-color="#C9A885"/>
<stop offset="0.72" stop-color="#9A7A5F"/>
<stop offset="0.84" stop-color="#C9A885"/>
<stop offset="1" stop-color="#EEDEBC"/>
</linearGradient>
</defs>
</svg>
