<svg width="80" height="24" viewBox="0 0 80 24" fill="none" xmlns="http://www.w3.org/2000/svg">
<path d="M80 12C80 18.6274 74.6274 24 68 24C61.3726 24 56 18.6274 56 12C56 5.37256 61.3726 0 68 0C74.6274 0 80 5.37256 80 12Z" fill="#F9E109"/>
<path d="M77 12C77 16.9707 72.9707 21 68 21C63.0293 21 59 16.9707 59 12C59 7.0293 63.0293 3 68 3C72.9707 3 77 7.0293 77 12Z" fill="#FCBC04"/>
<path d="M67.8328 3C64.6322 3.00249 61.6643 4.67109 60 7.40265C63.6149 5.21601 68.2566 5.77785 71.244 8.76371C74.2319 11.7491 74.7941 16.3876 72.606 20C76.1128 17.8586 77.7681 13.6491 76.658 9.6948C75.5475 5.74052 71.9426 3.00547 67.8328 3Z" fill="#E59730"/>
<path d="M71.5617 16.1578C71.3413 16.0229 71.0793 15.9852 70.8322 16.0529C70.5856 16.1205 70.3746 16.2882 70.2462 16.5192C69.7262 17.4612 68.7609 18.0374 67.7211 18.0256C66.1304 18.0256 64.8406 16.6766 64.8406 15.0128H68.6812C69.2115 15.0128 69.6414 14.5631 69.6414 14.0085C69.6414 13.4539 69.2115 13.0043 68.6812 13.0043H64.8406V10.9957H68.6812C69.2115 10.9957 69.6414 10.5461 69.6414 9.99147C69.6414 9.43687 69.2115 8.98721 68.6812 8.98721H64.8406C64.8406 7.3234 66.1304 5.97441 67.7211 5.97441C68.7441 5.98079 69.6869 6.55402 70.1984 7.48081C70.3268 7.71177 70.5373 7.87947 70.7844 7.94714C71.031 8.01481 71.2935 7.97706 71.5139 7.84221C71.9672 7.56319 72.1215 6.95416 71.8594 6.47654C70.7647 4.52931 68.5617 3.58634 66.4759 4.17232C64.3901 4.75782 62.9353 6.72859 62.9203 8.98721H61.9602C61.4299 8.98721 61 9.43687 61 9.99147C61 10.5461 61.4299 10.9957 61.9602 10.9957H62.9203V13.0043H61.9602C61.4299 13.0043 61 13.4539 61 14.0085C61 14.5631 61.4299 15.0128 61.9602 15.0128H62.9203C62.9353 17.2714 64.3901 19.2422 66.4759 19.8277C68.5617 20.4137 70.7647 19.4707 71.8594 17.5235C72.1304 17.0591 71.9982 16.4535 71.5617 16.1578V16.1578Z" fill="#F9E109"/>
<path d="M52 12C52 18.6274 46.6274 24 40 24C33.3726 24 28 18.6274 28 12C28 5.37256 33.3726 0 40 0C46.6274 0 52 5.37256 52 12Z" fill="#F9E109"/>
<path d="M52 12C52 18.6274 46.6274 24 40 24C33.3726 24 28 18.6274 28 12C28 5.37256 33.3726 0 40 0C46.6274 0 52 5.37256 52 12Z" fill="#F9E109"/>
<path d="M49 12C49 16.9707 44.9707 21 40 21C35.0293 21 31 16.9707 31 12C31 7.0293 35.0293 3 40 3C44.9707 3 49 7.0293 49 12Z" fill="#FCBC04"/>
<path d="M39.8328 3C36.6322 3.00249 33.6643 4.67109 32 7.40265C35.6149 5.21601 40.2566 5.77785 43.244 8.76371C46.2319 11.7491 46.7941 16.3876 44.606 20C48.1128 17.8586 49.7681 13.6491 48.658 9.6948C47.5475 5.74052 43.9426 3.00547 39.8328 3Z" fill="#E59730"/>
<path d="M40 7C41.1045 7 42 7.89551 42 9C42 9.55225 42.4478 10 43 10C43.5522 10 44 9.55225 44 9C43.9941 7.18066 42.7612 5.59473 41 5.14014V4C41 3.44775 40.5522 3 40 3C39.4478 3 39 3.44775 39 4V5.14014C37.0742 5.66309 35.8281 7.52539 36.0801 9.50488C36.332 11.4849 38.0044 12.9761 40 13C41.1045 13 42 13.8955 42 15C42 16.1045 41.1045 17 40 17C38.8955 17 38 16.1045 38 15C38 14.4478 37.5522 14 37 14C36.4478 14 36 14.4478 36 15C36.0059 16.8193 37.2388 18.4053 39 18.8599V20C39 20.5522 39.4478 21 40 21C40.5522 21 41 20.5522 41 20V18.8599C42.9258 18.3369 44.1719 16.4746 43.9199 14.4951C43.668 12.5151 41.9956 11.0239 40 11C38.8955 11 38 10.1045 38 9C38 7.89551 38.8955 7 40 7Z" fill="#F9E109"/>
<path d="M24 12C24 18.6274 18.6274 24 12 24C5.37263 24 0 18.6274 0 12C0 5.37263 5.37263 0 12 0C18.6274 0 24 5.37263 24 12Z" fill="#F9E109"/>
<path d="M21 12C21 16.9706 16.9706 21 12 21C7.02939 21 3 16.9706 3 12C3 7.02939 7.02939 3 12 3C16.9706 3 21 7.02939 21 12Z" fill="#FCBC04"/>
<path d="M11.6059 3C7.87568 3.0008 4.49892 5.12813 3 8.4213C6.34545 5.72151 11.1781 5.59559 14.6701 8.11757C18.162 10.6391 19.3951 15.146 17.6479 19C20.6708 16.55 21.7833 12.54 20.4325 8.96239C19.0813 5.3852 15.5552 3.00282 11.6059 3Z" fill="#E59730"/>
<path d="M17 9.3C17 7.31191 15.5075 5.7 13.6667 5.7V3.9C13.6667 3.40298 13.2935 3 12.8333 3C12.3731 3 12 3.40298 12 3.9V5.7H10.3333V3.9C10.3333 3.40298 9.96021 3 9.5 3C9.03979 3 8.66667 3.40298 8.66667 3.9V5.7H7.83333C7.37313 5.7 7 6.10298 7 6.6C7 7.09702 7.37313 7.5 7.83333 7.5H8.66667V16.5H7.83333C7.37313 16.5 7 16.903 7 17.4C7 17.897 7.37313 18.3 7.83333 18.3H8.66667V20.1C8.66667 20.597 9.03979 21 9.5 21C9.96021 21 10.3333 20.597 10.3333 20.1V18.3H12V20.1C12 20.597 12.3731 21 12.8333 21C13.2935 21 13.6667 20.597 13.6667 20.1V18.3C15.0489 18.2903 16.2826 17.3604 16.7673 15.9621C17.2519 14.5638 16.8869 12.9875 15.8501 12C16.5756 11.321 16.9947 10.3367 17 9.3ZM15.3333 14.7C15.3333 15.694 14.5871 16.5 13.6667 16.5H10.3333V12.9H13.6667C14.5871 12.9 15.3333 13.706 15.3333 14.7ZM10.3333 11.1V7.5H13.6667C14.5871 7.5 15.3333 8.30596 15.3333 9.3C15.3333 10.294 14.5871 11.1 13.6667 11.1H10.3333Z" fill="#F9E109"/>
</svg>
