<svg width="160" height="160" viewBox="0 0 160 160" fill="none" xmlns="http://www.w3.org/2000/svg">
<g opacity="0.9">
<path d="M21.6957 159.86L21.855 159.413L21.6957 159.86C20.5044 159.428 19.3945 158.796 18.4133 157.99C16.8373 156.696 15.6206 155.013 14.8816 153.105V153.063C14.1165 150.996 13.759 148.799 13.829 146.594C13.9866 142.675 14.7747 138.807 16.1627 135.143C17.2227 132.191 18.467 129.31 19.8883 126.517C27.0071 112.337 29.6662 96.043 29.8117 85.3452C29.9347 82.2895 29.6788 79.2303 29.0499 76.2385C28.6816 74.8132 28.2189 73.4144 27.665 72.0515C27.4711 71.577 27.3049 71.214 27.1871 70.9698L27.0556 70.6976L27.021 70.6279C26.9708 70.5363 26.9391 70.4356 26.9276 70.3316C26.9162 70.2276 26.9251 70.1223 26.9541 70.0219C26.983 69.9214 27.0314 69.8277 27.0963 69.746C27.1613 69.6644 27.2416 69.5965 27.3326 69.5462C27.4522 69.4828 27.5852 69.4493 27.7204 69.4485C27.8618 69.4483 28.0007 69.4865 28.1225 69.5589C28.2444 69.6313 28.3446 69.7354 28.4129 69.8603C29.3637 71.7652 30.0933 73.7742 30.5872 75.8477C31.2449 78.9653 31.5125 82.1536 31.3836 85.3382C31.2416 91.8234 30.4692 98.279 29.0776 104.612C27.4349 112.441 24.8222 120.03 21.301 127.201C19.9098 129.933 18.6932 132.751 17.6585 135.638C16.3268 139.139 15.5667 142.834 15.4079 146.58C15.3447 148.565 15.6621 150.544 16.3428 152.407C16.6534 152.804 17.0518 153.122 17.5062 153.335C18.452 153.788 19.4465 154.13 20.47 154.354C21.4949 154.598 22.4367 154.745 22.9352 154.815C23.4997 154.898 24.0235 155.159 24.431 155.561C24.6789 155.807 24.8753 156.1 25.0085 156.424C25.1417 156.748 25.2091 157.095 25.2066 157.445C25.2046 157.584 25.1884 157.722 25.1582 157.857V157.955C25.0634 158.385 24.8618 158.783 24.5723 159.113C24.2828 159.442 23.9149 159.692 23.5031 159.839C23.1994 159.951 22.8777 160.005 22.5544 160C22.2624 160.003 21.972 159.955 21.6957 159.86Z" fill="url(#paint0_linear)"/>
<path d="M38.3155 72.9029C38.0243 73.1035 37.701 73.2522 37.3599 73.3425C36.5332 73.5598 35.6567 73.4732 34.8877 73.0983C34.5267 72.9395 34.2109 72.6921 33.969 72.3789C33.7271 72.0657 33.5668 71.6964 33.5027 71.3048C33.5017 71.0747 33.5501 70.847 33.6445 70.6375C33.739 70.4279 33.8772 70.2413 34.0497 70.0906C34.2994 69.9074 34.5996 69.8073 34.9085 69.8044C35.504 69.8044 35.7879 70.2022 36.2934 70.3418C38.0593 70.8163 37.7753 69.2881 37.3875 68.7229C37.1061 68.3473 36.731 68.0535 36.3003 67.8714C32 65.8686 30.8713 71.2071 30.6704 73.8729C30.4696 76.5386 30.9543 79.4206 30.3726 82.0933C30.0679 83.489 29.14 85.115 27.6027 85.5825L27.478 84.9963V84.4171C28.1111 83.6984 28.5981 82.8615 28.9115 81.9538C29.604 80.0906 29.6386 78.0598 29.6732 76.0919C29.6611 74.4127 29.8166 72.7365 30.1372 71.0885C30.4488 69.6929 30.8297 67.9552 31.9723 66.9015C32.9007 66.1151 34.085 65.7027 35.2972 65.7439C36.5093 65.7852 37.6635 66.277 38.5371 67.1248C40.206 68.7717 40.3237 71.5142 38.3155 72.9029Z" fill="url(#paint1_linear)"/>
<path d="M12.2986 79.986C12.448 79.2208 12.7847 78.5054 13.2781 77.9046C13.7715 77.3038 14.406 76.8367 15.124 76.5457C16.6613 75.9804 18.7388 76.4899 19.5005 77.8576C19.6629 78.2026 19.7341 78.584 19.7074 78.9649C19.6807 79.3458 19.5569 79.7133 19.348 80.0318C19.1391 80.3504 18.8522 80.6093 18.5149 80.7834C18.1777 80.9575 17.8016 81.041 17.423 81.0258C16.4951 80.956 15.6156 80.3279 14.7084 80.4954C14.3482 80.5591 14.017 80.7357 13.7621 81.0001C13.5073 81.2645 13.3416 81.6031 13.2889 81.9679C13.2295 82.6886 13.4178 83.408 13.8221 84.0055C16.6405 88.7997 23.9809 88.5345 27.1109 84.5429C29.9709 80.9002 28.7521 76.1688 27.2563 71.8981C26.46 69.6231 23.3022 67.097 20.8162 69.0649C20.5738 69.2533 20.2484 69.4836 19.9783 69.3231C19.8814 69.2577 19.8084 69.1621 19.7705 69.051C19.6072 68.6623 19.5354 68.2408 19.5606 67.8195C19.5858 67.3982 19.7075 66.9885 19.916 66.6225C20.5067 65.6185 21.4473 64.8722 22.5544 64.529C23.053 64.3755 24.4241 64.5988 24.7495 64.3476C25.075 64.0963 24.9227 62.3168 24.9296 61.8772C25.0265 57.6902 24.6111 52.9519 27.7688 49.5744C28.4613 48.8765 29.0222 49.6721 29.1538 50.3281C29.3408 51.6749 30.0333 52.9868 30.1025 54.3336C30.5872 54.3825 31.1274 54.1941 31.6537 54.2499C32.2567 54.3204 32.8389 54.5151 33.3641 54.8221C34.1857 55.2705 34.8251 55.9954 35.1706 56.8703C35.5161 57.7452 35.5458 58.7145 35.2546 59.6092C35.2242 59.676 35.1754 59.7327 35.1141 59.7724C35.0527 59.812 34.9813 59.8332 34.9084 59.8332C34.8355 59.8332 34.7641 59.812 34.7027 59.7724C34.6413 59.7327 34.5925 59.676 34.5621 59.6092C33.4749 57.8367 31.3836 59.4348 30.8435 60.3071C30.2544 61.3411 29.7894 62.4422 29.4585 63.5869C28.838 65.791 28.8046 68.1207 29.3615 70.3419C30.6842 74.2777 31.439 78.4508 30.5388 82.4075C30.2295 83.9392 29.528 85.3627 28.5039 86.5367C27.4798 87.7107 26.1688 88.5943 24.7011 89.0997C23.4678 89.4621 22.1735 89.5643 20.8993 89.3998C20.2717 89.324 19.6511 89.198 19.0434 89.023C14.7985 87.7948 11.4538 83.7962 12.2986 79.986Z" fill="url(#paint2_linear)"/>
<path d="M73.5424 37.8156C73.7387 37.5206 73.886 37.1953 73.9786 36.8526C74.1942 36.0195 74.1083 35.1364 73.7362 34.3614C73.5781 33.998 73.3326 33.68 73.0218 33.4364C72.7111 33.1927 72.345 33.0309 71.9566 32.9657C71.7281 32.9643 71.502 33.0128 71.294 33.108C71.086 33.2031 70.9009 33.3427 70.7516 33.5169C70.5668 33.7669 70.4672 34.0705 70.4677 34.3822C70.4677 34.9824 70.8555 35.2685 70.994 35.7779C71.4718 37.5574 69.9553 37.2713 69.3944 36.8875C69.023 36.5996 68.732 36.2197 68.5495 35.7849C66.5621 31.4513 71.8596 30.3139 74.498 30.1115C77.1364 29.9091 80.0379 30.3977 82.6624 29.8115C84.0474 29.5044 85.6609 28.5763 86.1249 27.0201L85.5432 26.8945C85.3493 26.8945 85.1623 26.8945 84.9684 26.8945C84.2552 27.5325 83.4246 28.0233 82.5239 28.3391C80.675 29.0369 78.6599 29.0369 76.707 29.1067C75.0406 29.0941 73.3772 29.2507 71.7419 29.5742C70.3569 29.8882 68.6257 30.272 67.587 31.4234C66.8056 32.3581 66.3952 33.5512 66.4349 34.7727C66.4745 35.9942 66.9614 37.1576 67.8016 38.0389C69.4428 39.7556 72.1643 39.8742 73.5424 37.8156Z" fill="url(#paint3_linear)"/>
<path d="M80.571 11.6124C79.8112 11.7617 79.1007 12.1006 78.5043 12.598C77.9079 13.0953 77.4447 13.7354 77.157 14.4596C76.5961 16.0088 77.1017 18.1022 78.452 18.8699C78.7942 19.0356 79.1732 19.1091 79.552 19.0831C79.9308 19.0571 80.2964 18.9326 80.6132 18.7216C80.9299 18.5107 81.187 18.2206 81.3592 17.8797C81.5315 17.5387 81.613 17.1586 81.5959 16.7764C81.5336 15.8413 80.9034 14.9551 81.0696 14.0409C81.1342 13.6773 81.3108 13.3434 81.5743 13.0866C81.8378 12.8298 82.1749 12.6632 82.5377 12.6103C83.2529 12.5511 83.9665 12.7408 84.5597 13.1477C89.3171 15.9948 89.054 23.3849 85.086 26.5391C81.4782 29.4211 76.8177 28.193 72.5381 26.6857C70.2806 25.8901 67.7807 22.701 69.7266 20.1958C69.9136 19.9515 70.1491 19.6236 69.9898 19.3514C69.9249 19.2537 69.83 19.1802 69.7197 19.142C69.3342 18.9769 68.9158 18.9042 68.4977 18.9297C68.0795 18.9551 67.6729 19.0779 67.3099 19.2886C66.3118 19.8818 65.5706 20.8305 65.2324 21.9473C65.08 22.4498 65.3016 23.8315 65.0523 24.1595C64.803 24.4875 63.0372 24.3339 62.6009 24.3409C58.446 24.4386 53.7371 24.0199 50.3854 27.2021C49.6929 27.8999 50.4893 28.4651 51.1403 28.5977C52.4768 28.7861 53.7786 29.484 55.1151 29.5538C55.1636 30.0422 54.9697 30.5865 55.032 31.1169C55.0954 31.7261 55.2892 32.3141 55.5999 32.8405C56.0449 33.6685 56.7642 34.3128 57.6324 34.6609C58.5006 35.0091 59.4625 35.0391 60.3504 34.7456C60.4167 34.715 60.4728 34.6659 60.5122 34.604C60.5516 34.5422 60.5726 34.4702 60.5726 34.3967C60.5726 34.3232 60.5516 34.2513 60.5122 34.1894C60.4728 34.1276 60.4167 34.0784 60.3504 34.0478C58.5984 32.9522 60.1772 30.8447 61.0428 30.3004C62.069 29.7067 63.1616 29.2382 64.2976 28.9047C66.4823 28.2794 68.7921 28.2457 70.9939 28.807C74.9065 30.1399 79.0475 30.9006 82.967 30.0004C85.8686 29.3025 88.6593 27.2788 89.615 24.1106C89.9746 22.8678 90.0759 21.5636 89.9127 20.2795C89.8385 19.6464 89.7111 19.0207 89.5319 18.4093C88.32 14.1595 84.3174 10.7819 80.571 11.6124Z" fill="url(#paint4_linear)"/>
<path d="M74.4772 -0.000179495C73.7847 6.65019 66.7075 8.76455 62.0124 9.42749C57.1766 10.0393 52.6626 12.1965 49.1321 15.5824C36.8959 27.6689 49.5961 42.6235 49.5961 42.6235C49.5961 42.6235 43.8277 21.849 57.3797 16.8037C57.3797 16.8037 66.4582 12.9446 76.0769 19.9787C76.0769 19.9787 73.9994 14.0263 67.7324 12.8958C71.1187 11.6048 75.9176 8.68088 74.4772 -0.000179495Z" fill="url(#paint5_linear)"/>
<path d="M0 70.614C6.63404 70.3628 9.22396 63.4263 10.2211 58.7508C11.1635 53.9161 13.6198 49.5135 17.2291 46.1898C30.061 34.7523 43.9661 48.5834 43.9661 48.5834C43.9661 48.5834 23.8147 41.3049 17.8801 54.5708C17.8801 54.5708 13.4135 63.4193 19.6944 73.5938C19.6944 73.5938 13.9536 71.0955 13.2819 64.7103C11.7308 68.0669 8.48992 72.7075 0 70.614Z" fill="url(#paint6_linear)"/>
<path d="M19.6737 41.3745C22.9977 36.1408 32.2355 37.3341 38.9457 39.0647C39.7559 39.2811 40.5246 39.4973 41.2309 39.7067C40.9816 39.0088 40.7254 38.2552 40.49 37.4667C38.4125 30.8023 36.7921 21.5421 41.8126 17.9273C33.2257 16.2595 30.9336 24.2845 36.8751 35.5197C25.456 30.1045 17.5963 32.8121 19.6737 41.3745Z" fill="url(#paint7_linear)"/>
<path d="M21.8132 24.6891C23.9877 27.7387 29.6661 28.96 29.6661 28.96C29.6661 28.96 28.1841 23.3005 25.0541 21.2838C24.591 20.9557 24.0266 20.8055 23.4632 20.8607C22.8998 20.9158 22.3746 21.1725 21.9827 21.5842C21.5909 21.9959 21.3584 22.5354 21.3273 23.105C21.2962 23.6746 21.4686 24.2366 21.8132 24.6891V24.6891Z" fill="url(#paint8_linear)"/>
<path d="M38.1284 39.5043C38.1493 38.8848 38.3521 38.2854 38.7111 37.7821C39.0701 37.2788 39.5692 36.8941 40.1452 36.6766C40.7212 36.4592 41.3483 36.4188 41.9471 36.5606C42.5459 36.7024 43.0894 37.0199 43.5091 37.4731C43.9288 37.9263 44.2056 38.4947 44.3046 39.1064C44.4037 39.7182 44.3203 40.3458 44.0653 40.9099C43.8103 41.4739 43.395 41.9491 42.872 42.2752C42.3489 42.6014 41.7416 42.7639 41.1269 42.7422C40.304 42.7113 39.5266 42.3533 38.9648 41.7466C38.4029 41.1398 38.1022 40.3337 38.1284 39.5043Z" fill="url(#paint9_linear)"/>
<path d="M159.799 21.2705L159.349 21.4309L159.799 21.2705C159.366 20.0743 158.739 18.9588 157.943 17.9697C156.659 16.3816 154.989 15.1554 153.095 14.4107H153.054C151.005 13.6403 148.827 13.28 146.641 13.35C142.75 13.5115 138.911 14.3057 135.271 15.7018C132.345 16.7771 129.486 18.0308 126.712 19.456C112.64 26.6298 96.4775 29.3095 85.8548 29.456C82.8344 29.5758 79.8108 29.3204 76.8524 28.6954C75.4371 28.3275 74.0488 27.8612 72.6975 27.2998C72.2266 27.1044 71.8665 26.9368 71.6241 26.8252L71.3541 26.6857H71.2848C71.1652 26.6223 71.0322 26.5888 70.897 26.588C70.6876 26.5934 70.4886 26.681 70.3424 26.8323C70.1962 26.9835 70.1144 27.1863 70.1145 27.3974C70.1158 27.5396 70.1542 27.6791 70.2259 27.8016C70.2976 27.9241 70.4001 28.0253 70.5231 28.0952C72.4152 29.0475 74.4085 29.7803 76.4646 30.2794C79.5606 30.9425 82.7269 31.2121 85.8894 31.082C92.3227 30.9388 98.7265 30.1605 105.009 28.7582C112.783 27.1072 120.319 24.4741 127.439 20.9215C130.154 19.5254 132.953 18.2995 135.818 17.2509C139.29 15.9118 142.955 15.146 146.669 14.983C148.641 14.9232 150.606 15.2429 152.458 15.925C152.848 16.2406 153.16 16.6416 153.372 17.0974C153.828 18.0566 154.172 19.0659 154.397 20.105C154.64 21.1448 154.792 22.0869 154.861 22.5894C154.938 23.1584 155.196 23.687 155.595 24.0966C155.838 24.3484 156.129 24.5475 156.45 24.6819C156.772 24.8163 157.117 24.8831 157.465 24.8782C157.605 24.8757 157.744 24.8594 157.881 24.8294V24.8294H157.971C158.397 24.7346 158.793 24.5316 159.12 24.2397C159.447 23.9479 159.695 23.5768 159.84 23.1616C159.951 22.8555 160.005 22.5314 160 22.2055C159.991 21.8839 159.923 21.5668 159.799 21.2705V21.2705Z" fill="url(#paint10_linear)"/>
<path d="M38.1078 46.1896C38.0317 44.6683 37.9901 43.14 37.9555 41.6118C37.9208 40.0835 37.9139 38.5623 37.907 37.041V36.1198H38.8211C40.3376 36.1198 41.8472 36.1199 43.3638 36.1687C44.8804 36.2176 46.39 36.2455 47.9065 36.3222C49.4231 36.399 50.9327 36.4827 52.4493 36.5874C53.9658 36.6921 55.4754 36.8317 56.992 37.041C55.4754 37.2434 53.9589 37.362 52.4493 37.4876C50.9396 37.6133 49.4162 37.69 47.9065 37.7528C46.3969 37.8156 44.8804 37.8714 43.3638 37.9063C42.1519 37.9063 40.9401 37.9063 39.7282 37.9482C39.7282 39.1694 39.7282 40.3906 39.6867 41.6118C39.6867 43.14 39.6105 44.6683 39.5344 46.1896C39.4582 47.7109 39.3751 49.2462 39.2712 50.7675C39.1673 52.2887 39.0219 53.817 38.8211 55.3452C38.6203 53.817 38.5026 52.2957 38.371 50.7675C38.2394 49.2392 38.1702 47.7388 38.1078 46.1896Z" fill="url(#paint11_linear)"/>
<path d="M21.3425 149.364V92.8957C21.3623 92.6661 21.4669 92.4524 21.6354 92.2967C21.804 92.141 22.0244 92.0547 22.2531 92.0547C22.4817 92.0547 22.7021 92.141 22.8707 92.2967C23.0393 92.4524 23.1438 92.6661 23.1637 92.8957L23.1637 149.364C23.1747 149.492 23.1594 149.62 23.1186 149.741C23.0778 149.862 23.0126 149.973 22.927 150.067C22.8413 150.161 22.7372 150.236 22.6212 150.288C22.5052 150.339 22.3798 150.366 22.2531 150.366C22.1263 150.366 22.001 150.339 21.885 150.288C21.769 150.236 21.6648 150.161 21.5792 150.067C21.4936 149.973 21.4283 149.862 21.3875 149.741C21.3468 149.62 21.3314 149.492 21.3425 149.364V149.364Z" fill="url(#paint12_linear)"/>
<path d="M94.3655 21.8357C94.3655 21.5914 94.4618 21.3572 94.6332 21.1844C94.8046 21.0117 95.0371 20.9146 95.2796 20.9146L151.309 20.9146C151.435 20.9035 151.562 20.919 151.682 20.96C151.802 21.0011 151.913 21.0668 152.006 21.1531C152.099 21.2394 152.174 21.3444 152.225 21.4613C152.276 21.5782 152.302 21.7045 152.302 21.8322C152.302 21.96 152.276 22.0863 152.225 22.2032C152.174 22.3201 152.099 22.425 152.006 22.5113C151.913 22.5976 151.802 22.6634 151.682 22.7044C151.562 22.7455 151.435 22.761 151.309 22.7499L95.2796 22.7499C95.0383 22.7499 94.8069 22.6539 94.6356 22.4826C94.4644 22.3114 94.3673 22.0788 94.3655 21.8357V21.8357Z" fill="url(#paint13_linear)"/>
</g>
<defs>
<linearGradient id="paint0_linear" x1="16067.3" y1="-590180" x2="-22610.4" y2="-576911" gradientUnits="userSpaceOnUse">
<stop stop-color="#EEDEBC"/>
<stop offset="0.06" stop-color="#DDC6A3"/>
<stop offset="0.14" stop-color="#C9A885"/>
<stop offset="0.26" stop-color="#9A7A5F"/>
<stop offset="0.36" stop-color="#C9A885"/>
<stop offset="0.49" stop-color="#EEDEBC"/>
<stop offset="0.54" stop-color="#DDC6A3"/>
<stop offset="0.61" stop-color="#C9A885"/>
<stop offset="0.72" stop-color="#9A7A5F"/>
<stop offset="0.84" stop-color="#C9A885"/>
<stop offset="1" stop-color="#EEDEBC"/>
</linearGradient>
<linearGradient id="paint1_linear" x1="11064.4" y1="-125634" x2="-2682.7" y2="-110554" gradientUnits="userSpaceOnUse">
<stop stop-color="#EEDEBC"/>
<stop offset="0.06" stop-color="#DDC6A3"/>
<stop offset="0.14" stop-color="#C9A885"/>
<stop offset="0.26" stop-color="#9A7A5F"/>
<stop offset="0.36" stop-color="#C9A885"/>
<stop offset="0.49" stop-color="#EEDEBC"/>
<stop offset="0.54" stop-color="#DDC6A3"/>
<stop offset="0.61" stop-color="#C9A885"/>
<stop offset="0.72" stop-color="#9A7A5F"/>
<stop offset="0.84" stop-color="#C9A885"/>
<stop offset="1" stop-color="#EEDEBC"/>
</linearGradient>
<linearGradient id="paint2_linear" x1="20650.6" y1="-259644" x2="-7294.62" y2="-231045" gradientUnits="userSpaceOnUse">
<stop stop-color="#EEDEBC"/>
<stop offset="0.06" stop-color="#DDC6A3"/>
<stop offset="0.14" stop-color="#C9A885"/>
<stop offset="0.26" stop-color="#9A7A5F"/>
<stop offset="0.36" stop-color="#C9A885"/>
<stop offset="0.49" stop-color="#EEDEBC"/>
<stop offset="0.54" stop-color="#DDC6A3"/>
<stop offset="0.61" stop-color="#C9A885"/>
<stop offset="0.72" stop-color="#9A7A5F"/>
<stop offset="0.84" stop-color="#C9A885"/>
<stop offset="1" stop-color="#EEDEBC"/>
</linearGradient>
<linearGradient id="paint3_linear" x1="18100.7" y1="-76791.5" x2="12602.7" y2="-61436" gradientUnits="userSpaceOnUse">
<stop stop-color="#EEDEBC"/>
<stop offset="0.06" stop-color="#DDC6A3"/>
<stop offset="0.14" stop-color="#C9A885"/>
<stop offset="0.26" stop-color="#9A7A5F"/>
<stop offset="0.36" stop-color="#C9A885"/>
<stop offset="0.49" stop-color="#EEDEBC"/>
<stop offset="0.54" stop-color="#DDC6A3"/>
<stop offset="0.61" stop-color="#C9A885"/>
<stop offset="0.72" stop-color="#9A7A5F"/>
<stop offset="0.84" stop-color="#C9A885"/>
<stop offset="1" stop-color="#EEDEBC"/>
</linearGradient>
<linearGradient id="paint4_linear" x1="36180" y1="-149251" x2="26387.3" y2="-119867" gradientUnits="userSpaceOnUse">
<stop stop-color="#EEDEBC"/>
<stop offset="0.06" stop-color="#DDC6A3"/>
<stop offset="0.14" stop-color="#C9A885"/>
<stop offset="0.26" stop-color="#9A7A5F"/>
<stop offset="0.36" stop-color="#C9A885"/>
<stop offset="0.49" stop-color="#EEDEBC"/>
<stop offset="0.54" stop-color="#DDC6A3"/>
<stop offset="0.61" stop-color="#C9A885"/>
<stop offset="0.72" stop-color="#9A7A5F"/>
<stop offset="0.84" stop-color="#C9A885"/>
<stop offset="1" stop-color="#EEDEBC"/>
</linearGradient>
<linearGradient id="paint5_linear" x1="28846.8" y1="-275586" x2="394.145" y2="-237559" gradientUnits="userSpaceOnUse">
<stop stop-color="#EEDEBC"/>
<stop offset="0.06" stop-color="#DDC6A3"/>
<stop offset="0.14" stop-color="#C9A885"/>
<stop offset="0.26" stop-color="#9A7A5F"/>
<stop offset="0.36" stop-color="#C9A885"/>
<stop offset="0.49" stop-color="#EEDEBC"/>
<stop offset="0.54" stop-color="#DDC6A3"/>
<stop offset="0.61" stop-color="#C9A885"/>
<stop offset="0.72" stop-color="#9A7A5F"/>
<stop offset="0.84" stop-color="#C9A885"/>
<stop offset="1" stop-color="#EEDEBC"/>
</linearGradient>
<linearGradient id="paint6_linear" x1="38447.5" y1="-205575" x2="22812.3" y2="-167568" gradientUnits="userSpaceOnUse">
<stop stop-color="#EEDEBC"/>
<stop offset="0.06" stop-color="#DDC6A3"/>
<stop offset="0.14" stop-color="#C9A885"/>
<stop offset="0.26" stop-color="#9A7A5F"/>
<stop offset="0.36" stop-color="#C9A885"/>
<stop offset="0.49" stop-color="#EEDEBC"/>
<stop offset="0.54" stop-color="#DDC6A3"/>
<stop offset="0.61" stop-color="#C9A885"/>
<stop offset="0.72" stop-color="#9A7A5F"/>
<stop offset="0.84" stop-color="#C9A885"/>
<stop offset="1" stop-color="#EEDEBC"/>
</linearGradient>
<linearGradient id="paint7_linear" x1="19581.4" y1="-151097" x2="5091.19" y2="-126805" gradientUnits="userSpaceOnUse">
<stop stop-color="#EEDEBC"/>
<stop offset="0.06" stop-color="#DDC6A3"/>
<stop offset="0.14" stop-color="#C9A885"/>
<stop offset="0.26" stop-color="#9A7A5F"/>
<stop offset="0.36" stop-color="#C9A885"/>
<stop offset="0.49" stop-color="#EEDEBC"/>
<stop offset="0.54" stop-color="#DDC6A3"/>
<stop offset="0.61" stop-color="#C9A885"/>
<stop offset="0.72" stop-color="#9A7A5F"/>
<stop offset="0.84" stop-color="#C9A885"/>
<stop offset="1" stop-color="#EEDEBC"/>
</linearGradient>
<linearGradient id="paint8_linear" x1="7174.97" y1="-48548.4" x2="2405.93" y2="-39887.7" gradientUnits="userSpaceOnUse">
<stop stop-color="#EEDEBC"/>
<stop offset="0.06" stop-color="#DDC6A3"/>
<stop offset="0.14" stop-color="#C9A885"/>
<stop offset="0.26" stop-color="#9A7A5F"/>
<stop offset="0.36" stop-color="#C9A885"/>
<stop offset="0.49" stop-color="#EEDEBC"/>
<stop offset="0.54" stop-color="#DDC6A3"/>
<stop offset="0.61" stop-color="#C9A885"/>
<stop offset="0.72" stop-color="#9A7A5F"/>
<stop offset="0.84" stop-color="#C9A885"/>
<stop offset="1" stop-color="#EEDEBC"/>
</linearGradient>
<linearGradient id="paint9_linear" x1="5530.48" y1="-36296.8" x2="1775.95" y2="-29719.1" gradientUnits="userSpaceOnUse">
<stop stop-color="#EEDEBC"/>
<stop offset="0.06" stop-color="#DDC6A3"/>
<stop offset="0.14" stop-color="#C9A885"/>
<stop offset="0.26" stop-color="#9A7A5F"/>
<stop offset="0.36" stop-color="#C9A885"/>
<stop offset="0.49" stop-color="#EEDEBC"/>
<stop offset="0.54" stop-color="#DDC6A3"/>
<stop offset="0.61" stop-color="#C9A885"/>
<stop offset="0.72" stop-color="#9A7A5F"/>
<stop offset="0.84" stop-color="#C9A885"/>
<stop offset="1" stop-color="#EEDEBC"/>
</linearGradient>
<linearGradient id="paint10_linear" x1="85900.9" y1="-111363" x2="83165.4" y2="-86936.6" gradientUnits="userSpaceOnUse">
<stop stop-color="#EEDEBC"/>
<stop offset="0.06" stop-color="#DDC6A3"/>
<stop offset="0.14" stop-color="#C9A885"/>
<stop offset="0.26" stop-color="#9A7A5F"/>
<stop offset="0.36" stop-color="#C9A885"/>
<stop offset="0.49" stop-color="#EEDEBC"/>
<stop offset="0.54" stop-color="#DDC6A3"/>
<stop offset="0.61" stop-color="#C9A885"/>
<stop offset="0.72" stop-color="#9A7A5F"/>
<stop offset="0.84" stop-color="#C9A885"/>
<stop offset="1" stop-color="#EEDEBC"/>
</linearGradient>
<linearGradient id="paint11_linear" x1="16989" y1="-121627" x2="5472.78" y2="-101443" gradientUnits="userSpaceOnUse">
<stop stop-color="#EEDEBC"/>
<stop offset="0.06" stop-color="#DDC6A3"/>
<stop offset="0.14" stop-color="#C9A885"/>
<stop offset="0.26" stop-color="#9A7A5F"/>
<stop offset="0.36" stop-color="#C9A885"/>
<stop offset="0.49" stop-color="#EEDEBC"/>
<stop offset="0.54" stop-color="#DDC6A3"/>
<stop offset="0.61" stop-color="#C9A885"/>
<stop offset="0.72" stop-color="#9A7A5F"/>
<stop offset="0.84" stop-color="#C9A885"/>
<stop offset="1" stop-color="#EEDEBC"/>
</linearGradient>
<linearGradient id="paint12_linear" x1="1689.71" y1="-378300" x2="-2788.35" y2="-378052" gradientUnits="userSpaceOnUse">
<stop stop-color="#EEDEBC"/>
<stop offset="0.06" stop-color="#DDC6A3"/>
<stop offset="0.14" stop-color="#C9A885"/>
<stop offset="0.26" stop-color="#9A7A5F"/>
<stop offset="0.36" stop-color="#C9A885"/>
<stop offset="0.49" stop-color="#EEDEBC"/>
<stop offset="0.54" stop-color="#DDC6A3"/>
<stop offset="0.61" stop-color="#C9A885"/>
<stop offset="0.72" stop-color="#9A7A5F"/>
<stop offset="0.84" stop-color="#C9A885"/>
<stop offset="1" stop-color="#EEDEBC"/>
</linearGradient>
<linearGradient id="paint13_linear" x1="55831.5" y1="-7047.67" x2="55785.3" y2="-4484.74" gradientUnits="userSpaceOnUse">
<stop stop-color="#EEDEBC"/>
<stop offset="0.06" stop-color="#DDC6A3"/>
<stop offset="0.14" stop-color="#C9A885"/>
<stop offset="0.26" stop-color="#9A7A5F"/>
<stop offset="0.36" stop-color="#C9A885"/>
<stop offset="0.49" stop-color="#EEDEBC"/>
<stop offset="0.54" stop-color="#DDC6A3"/>
<stop offset="0.61" stop-color="#C9A885"/>
<stop offset="0.72" stop-color="#9A7A5F"/>
<stop offset="0.84" stop-color="#C9A885"/>
<stop offset="1" stop-color="#EEDEBC"/>
</linearGradient>
</defs>
</svg>
