<svg width="160" height="160" viewBox="0 0 160 160" fill="none" xmlns="http://www.w3.org/2000/svg">
<path d="M0.140003 21.6956L0.586627 21.8548L0.140003 21.6956C0.571695 20.5043 1.20408 19.3944 2.0102 18.4132C3.30391 16.8372 4.98681 15.6205 6.89504 14.8815H6.93691C9.0037 14.1164 11.2011 13.7589 13.4059 13.8289C17.3252 13.9864 21.1927 14.7746 24.8574 16.1626C27.8088 17.2226 30.6896 18.4669 33.4826 19.8882C47.6626 27.007 63.957 29.6661 74.6549 29.8115C77.7105 29.9346 80.7698 29.6787 83.7616 29.0498C85.1869 28.6814 86.5856 28.2187 87.9486 27.6648C88.4231 27.4709 88.786 27.3047 89.0302 27.187L89.3024 27.0554L89.3722 27.0208C89.4638 26.9707 89.5645 26.939 89.6684 26.9275C89.7724 26.916 89.8777 26.925 89.9782 26.954C90.0786 26.9829 90.1724 27.0312 90.254 27.0962C90.3356 27.1611 90.4035 27.2414 90.4538 27.3325C90.5172 27.4521 90.5507 27.5851 90.5516 27.7203C90.5517 27.8617 90.5136 28.0006 90.4412 28.1224C90.3687 28.2442 90.2646 28.3445 90.1398 28.4127C88.2349 29.3636 86.2258 30.0932 84.1524 30.5871C81.0348 31.2448 77.8465 31.5123 74.6618 31.3835C68.1766 31.2414 61.721 30.4691 55.3876 29.0775C47.5594 27.4348 39.9702 24.8221 32.7987 21.3009C30.0674 19.9097 27.2494 18.6931 24.3619 17.6584C20.8609 16.3267 17.1657 15.5666 13.4198 15.4078C11.435 15.3446 9.4565 15.662 7.59288 16.3427C7.19627 16.6533 6.87845 17.0517 6.66479 17.506C6.21159 18.4519 5.86971 19.4464 5.64593 20.4699C5.40169 21.4948 5.25516 22.4365 5.18538 22.9351C5.10236 23.4996 4.84091 24.0234 4.43869 24.4309C4.19295 24.6788 3.89955 24.8751 3.5759 25.0084C3.25224 25.1416 2.90492 25.209 2.55453 25.2065C2.41597 25.2045 2.27798 25.1882 2.14279 25.158H2.04512C1.61542 25.0633 1.21705 24.8617 0.887458 24.5722C0.557862 24.2827 0.307857 23.9147 0.160958 23.503C0.0490122 23.1993 -0.00543138 22.8776 0.000427211 22.5543C-0.00256907 22.2622 0.044638 21.9719 0.140003 21.6956Z" fill="url(#paint0_linear)"/>
<path d="M87.0971 38.3155C86.8965 38.0243 86.7478 37.701 86.6575 37.3599C86.4402 36.5332 86.5268 35.6567 86.9017 34.8877C87.0605 34.5267 87.3079 34.2109 87.6211 33.969C87.9343 33.7271 88.3036 33.5668 88.6952 33.5027C88.9254 33.5017 89.153 33.5501 89.3625 33.6445C89.5721 33.739 89.7587 33.8772 89.9094 34.0497C90.0926 34.2994 90.1927 34.5996 90.1956 34.9085C90.1956 35.504 89.7978 35.7879 89.6582 36.2934C89.1837 38.0593 90.7119 37.7753 91.2772 37.3875C91.6527 37.1061 91.9465 36.731 92.1286 36.3003C94.1314 32 88.7929 30.8713 86.1271 30.6704C83.4614 30.4696 80.5794 30.9543 77.9067 30.3726C76.511 30.0679 74.885 29.14 74.4175 27.6027L75.0037 27.478H75.5829C76.3016 28.1111 77.1386 28.5981 78.0462 28.9115C79.9095 29.604 81.9402 29.6386 83.9081 29.6732C85.5873 29.6611 87.2635 29.8166 88.9115 30.1372C90.3072 30.4488 92.0448 30.8297 93.0985 31.9723C93.8849 32.9007 94.2973 34.085 94.2561 35.2972C94.2148 36.5093 93.723 37.6635 92.8752 38.5371C91.2283 40.206 88.4858 40.3237 87.0971 38.3155Z" fill="url(#paint1_linear)"/>
<path d="M80.014 12.2988C80.7792 12.4482 81.4947 12.7849 82.0954 13.2783C82.6962 13.7717 83.1633 14.4062 83.4543 15.1242C84.0196 16.6615 83.5101 18.739 82.1424 19.5007C81.7974 19.6631 81.416 19.7344 81.0351 19.7076C80.6542 19.6809 80.2867 19.5571 79.9682 19.3482C79.6496 19.1393 79.3907 18.8524 79.2166 18.5152C79.0425 18.178 78.959 17.8019 78.9742 17.4233C79.044 16.4953 79.6721 15.6159 79.5046 14.7087C79.4409 14.3484 79.2643 14.0173 78.9999 13.7624C78.7355 13.5075 78.3969 13.3419 78.0321 13.2891C77.3114 13.2298 76.592 13.418 75.9945 13.8223C71.2003 16.6408 71.4655 23.9811 75.4571 27.1112C79.0998 29.9712 83.8312 28.7524 88.1019 27.2566C90.3769 26.4602 92.903 23.3025 90.9351 20.8164C90.7467 20.5741 90.5164 20.2486 90.6769 19.9786C90.7423 19.8816 90.8379 19.8086 90.9491 19.7708C91.3377 19.6075 91.7592 19.5356 92.1805 19.5608C92.6018 19.5861 93.0115 19.7077 93.3775 19.9162C94.3815 20.507 95.1278 21.4475 95.471 22.5546C95.6245 23.0532 95.4012 24.4243 95.6525 24.7498C95.9037 25.0753 97.6832 24.9229 98.1228 24.9298C102.31 25.0268 107.048 24.6113 110.426 27.7691C111.123 28.4616 110.328 29.0225 109.672 29.154C108.325 29.341 107.013 30.0335 105.666 30.1027C105.618 30.5875 105.806 31.1276 105.75 31.6539C105.68 32.257 105.485 32.8392 105.178 33.3643C104.729 34.186 104.005 34.8253 103.13 35.1708C102.255 35.5163 101.286 35.5461 100.391 35.2549C100.324 35.2245 100.267 35.1757 100.228 35.1143C100.188 35.0529 100.167 34.9816 100.167 34.9086C100.167 34.8357 100.188 34.7643 100.228 34.7029C100.267 34.6415 100.324 34.5928 100.391 34.5624C102.163 33.4752 100.565 31.3839 99.693 30.8437C98.6589 30.2546 97.5578 29.7897 96.4131 29.4587C94.2091 28.8382 91.8793 28.8048 89.6581 29.3618C85.7223 30.6844 81.5492 31.4393 77.5925 30.539C76.0608 30.2298 74.6373 29.5282 73.4633 28.5042C72.2893 27.4801 71.4057 26.1691 70.9003 24.7013C70.5379 23.468 70.4357 22.1738 70.6002 20.8995C70.676 20.272 70.802 19.6514 70.977 19.0437C72.2052 14.7987 76.2038 11.454 80.014 12.2988Z" fill="url(#paint2_linear)"/>
<path d="M122.184 73.5422C122.479 73.7386 122.805 73.8859 123.147 73.9785C123.98 74.1941 124.864 74.1082 125.639 73.7361C126.002 73.578 126.32 73.3325 126.564 73.0217C126.807 72.711 126.969 72.3448 127.034 71.9564C127.036 71.728 126.987 71.5019 126.892 71.2939C126.797 71.0859 126.657 70.9008 126.483 70.7515C126.233 70.5667 125.93 70.4671 125.618 70.4676C125.018 70.4676 124.732 70.8554 124.222 70.9939C122.443 71.4717 122.729 69.9551 123.112 69.3942C123.4 69.0229 123.78 68.7318 124.215 68.5494C128.549 66.5619 129.686 71.8595 129.889 74.4979C130.091 77.1363 129.602 80.0378 130.189 82.6623C130.496 84.0473 131.424 85.6608 132.98 86.1247L133.106 85.5431C133.106 85.3492 133.106 85.1622 133.106 84.9683C132.468 84.2551 131.977 83.4245 131.661 82.5238C130.963 80.6748 130.963 78.6597 130.893 76.7069C130.906 75.0405 130.749 73.3771 130.426 71.7418C130.112 70.3568 129.728 68.6256 128.577 67.5868C127.642 66.8055 126.449 66.3951 125.227 66.4348C124.006 66.4744 122.842 66.9613 121.961 67.8015C120.244 69.4427 120.126 72.1642 122.184 73.5422Z" fill="url(#paint3_linear)"/>
<path d="M148.388 80.5708C148.239 79.811 147.9 79.1004 147.403 78.5041C146.905 77.9077 146.265 77.4445 145.541 77.1568C143.992 76.5959 141.898 77.1014 141.131 78.4518C140.965 78.794 140.891 79.173 140.917 79.5518C140.943 79.9306 141.068 80.2962 141.279 80.6129C141.49 80.9297 141.78 81.1867 142.121 81.359C142.462 81.5312 142.842 81.6128 143.224 81.5957C144.159 81.5333 145.045 80.9032 145.96 81.0694C146.323 81.134 146.657 81.3106 146.914 81.5741C147.171 81.8376 147.337 82.1747 147.39 82.5374C147.449 83.2526 147.26 83.9663 146.853 84.5595C144.006 89.3169 136.616 89.0538 133.461 85.0858C130.579 81.4779 131.808 76.8175 133.315 72.5379C134.11 70.2804 137.299 67.7805 139.805 69.7264C140.049 69.9134 140.377 70.1488 140.649 69.9895C140.747 69.9247 140.82 69.8298 140.858 69.7195C141.024 69.3339 141.096 68.9156 141.071 68.4974C141.045 68.0793 140.923 67.6727 140.712 67.3096C140.119 66.3115 139.17 65.5703 138.053 65.2322C137.551 65.0798 136.169 65.3014 135.841 65.0521C135.513 64.8028 135.667 63.037 135.66 62.6007C135.562 58.4458 135.981 53.7368 132.798 50.3852C132.101 49.6927 131.535 50.4891 131.403 51.14C131.214 52.4765 130.517 53.7784 130.447 55.1149C129.958 55.1634 129.414 54.9695 128.884 55.0318C128.274 55.0952 127.686 55.2889 127.16 55.5996C126.332 56.0446 125.688 56.764 125.34 57.6321C124.991 58.5003 124.961 59.4622 125.255 60.3501C125.285 60.4164 125.335 60.4726 125.396 60.512C125.458 60.5514 125.53 60.5723 125.604 60.5723C125.677 60.5723 125.749 60.5514 125.811 60.512C125.873 60.4726 125.922 60.4164 125.953 60.3501C127.048 58.5981 129.156 60.177 129.7 61.0426C130.294 62.0687 130.762 63.1613 131.096 64.2973C131.721 66.4821 131.755 68.7918 131.193 70.9937C129.861 74.9062 129.1 79.0473 130 82.9668C130.698 85.8683 132.722 88.6591 135.89 89.6147C137.133 89.9743 138.437 90.0757 139.721 89.9125C140.354 89.8383 140.98 89.7109 141.591 89.5316C145.841 88.3198 149.219 84.3172 148.388 80.5708Z" fill="url(#paint4_linear)"/>
<path d="M160 74.4772C153.35 73.7847 151.235 66.7075 150.573 62.0124C149.961 57.1766 147.804 52.6626 144.418 49.1321C132.331 36.8959 117.376 49.5961 117.376 49.5961C117.376 49.5961 138.151 43.8277 143.196 57.3797C143.196 57.3797 147.055 66.4582 140.021 76.0769C140.021 76.0769 145.974 73.9994 147.104 67.7324C148.395 71.1187 151.319 75.9176 160 74.4772Z" fill="url(#paint5_linear)"/>
<path d="M89.3863 0C89.6375 6.63404 96.574 9.22396 101.249 10.2211C106.084 11.1635 110.487 13.6198 113.81 17.2291C125.248 30.061 111.417 43.9661 111.417 43.9661C111.417 43.9661 118.695 23.8147 105.429 17.8801C105.429 17.8801 96.5809 13.4135 86.4065 19.6944C86.4065 19.6944 88.9047 13.9536 95.2899 13.2819C91.9333 11.7308 87.2928 8.48992 89.3863 0Z" fill="url(#paint6_linear)"/>
<path d="M118.625 19.6737C123.859 22.9977 122.666 32.2355 120.935 38.9457C120.719 39.7559 120.503 40.5246 120.293 41.2309C120.991 40.9816 121.745 40.7254 122.533 40.49C129.198 38.4125 138.458 36.7921 142.073 41.8126C143.741 33.2257 135.715 30.9336 124.48 36.8751C129.896 25.456 127.188 17.5963 118.625 19.6737Z" fill="url(#paint7_linear)"/>
<path d="M135.311 21.8132C132.261 23.9877 131.04 29.6661 131.04 29.6661C131.04 29.6661 136.699 28.1841 138.716 25.0541C139.044 24.591 139.194 24.0266 139.139 23.4632C139.084 22.8998 138.827 22.3746 138.416 21.9827C138.004 21.5909 137.465 21.3584 136.895 21.3273C136.325 21.2962 135.763 21.4686 135.311 21.8132V21.8132Z" fill="url(#paint8_linear)"/>
<path d="M120.496 38.1285C121.115 38.1495 121.715 38.3523 122.218 38.7113C122.721 39.0702 123.106 39.5693 123.323 40.1453C123.541 40.7213 123.581 41.3484 123.439 41.9472C123.298 42.546 122.98 43.0896 122.527 43.5092C122.074 43.9289 121.505 44.2057 120.894 44.3048C120.282 44.4038 119.654 44.3205 119.09 44.0654C118.526 43.8104 118.051 43.3952 117.725 42.8721C117.399 42.3491 117.236 41.7417 117.258 41.127C117.289 40.3041 117.647 39.5267 118.253 38.9649C118.86 38.403 119.666 38.1023 120.496 38.1285Z" fill="url(#paint9_linear)"/>
<path d="M138.73 159.799L138.57 159.349L138.73 159.799C139.926 159.366 141.042 158.739 142.031 157.943C143.619 156.659 144.845 154.989 145.59 153.096V153.054C146.36 151.005 146.721 148.827 146.651 146.642C146.489 142.751 145.695 138.911 144.299 135.271C143.223 132.345 141.97 129.487 140.544 126.712C133.371 112.64 130.691 96.4778 130.544 85.855C130.425 82.8346 130.68 79.8111 131.305 76.8527C131.673 75.4373 132.139 74.049 132.701 72.6977C132.896 72.2268 133.064 71.8667 133.175 71.6244L133.315 71.3543V71.2851C133.378 71.1654 133.412 71.0324 133.413 70.8973C133.407 70.6878 133.319 70.4888 133.168 70.3426C133.017 70.1965 132.814 70.1147 132.603 70.1147C132.461 70.116 132.321 70.1544 132.199 70.2262C132.076 70.2979 131.975 70.4004 131.905 70.5233C130.953 72.4155 130.22 74.4087 129.721 76.4649C129.058 79.5609 128.788 82.7271 128.919 85.8897C129.062 92.3229 129.84 98.7267 131.242 105.009C132.893 112.783 135.526 120.319 139.079 127.439C140.475 130.154 141.701 132.953 142.75 135.818C144.089 139.291 144.855 142.955 145.018 146.669C145.077 148.641 144.758 150.606 144.075 152.459C143.76 152.848 143.359 153.161 142.903 153.373C141.944 153.829 140.935 154.173 139.895 154.398C138.856 154.64 137.914 154.792 137.411 154.862C136.842 154.939 136.313 155.196 135.904 155.596C135.652 155.838 135.453 156.129 135.319 156.45C135.184 156.772 135.117 157.117 135.122 157.465C135.125 157.605 135.141 157.744 135.171 157.881V157.881V157.971C135.266 158.397 135.469 158.793 135.761 159.12C136.053 159.447 136.424 159.695 136.839 159.841C137.145 159.952 137.469 160.006 137.795 160C138.117 159.991 138.434 159.923 138.73 159.799V159.799Z" fill="url(#paint10_linear)"/>
<path d="M113.81 38.1081C115.332 38.0319 116.86 37.9903 118.388 37.9557C119.916 37.9211 121.438 37.9142 122.959 37.9072H123.88V38.8213C123.88 40.3379 123.88 41.8475 123.831 43.364C123.782 44.8806 123.755 46.3902 123.678 47.9068C123.601 49.4233 123.517 50.9329 123.413 52.4495C123.308 53.966 123.168 55.4757 122.959 56.9922C122.757 55.4757 122.638 53.9591 122.512 52.4495C122.387 50.9399 122.31 49.4164 122.247 47.9068C122.184 46.3971 122.129 44.8806 122.094 43.364C122.094 42.1522 122.094 40.9403 122.052 39.7285C120.831 39.7285 119.609 39.7285 118.388 39.6869C116.86 39.6869 115.332 39.6108 113.81 39.5346C112.289 39.4584 110.754 39.3753 109.233 39.2715C107.711 39.1676 106.183 39.0221 104.655 38.8213C106.183 38.6205 107.704 38.5028 109.233 38.3712C110.761 38.2397 112.261 38.1704 113.81 38.1081Z" fill="url(#paint11_linear)"/>
<path d="M10.6355 21.3423H67.1043C67.3339 21.3622 67.5476 21.4667 67.7033 21.6353C67.859 21.8039 67.9454 22.0243 67.9454 22.253C67.9454 22.4816 67.859 22.702 67.7033 22.8706C67.5476 23.0392 67.3339 23.1437 67.1043 23.1636H10.6355C10.5083 23.1746 10.3801 23.1592 10.2592 23.1185C10.1383 23.0777 10.0272 23.0125 9.93306 22.9268C9.83891 22.8412 9.7637 22.7371 9.71226 22.621C9.66083 22.505 9.63428 22.3797 9.63428 22.253C9.63428 22.1262 9.66083 22.0009 9.71226 21.8849C9.7637 21.7688 9.83891 21.6647 9.93306 21.5791C10.0272 21.4934 10.1383 21.4282 10.2592 21.3874C10.3801 21.3467 10.5083 21.3313 10.6355 21.3423V21.3423Z" fill="url(#paint12_linear)"/>
<path d="M138.165 94.3657C138.409 94.3657 138.643 94.462 138.816 94.6334C138.989 94.8049 139.086 95.0374 139.086 95.2798V151.309C139.097 151.435 139.082 151.563 139.04 151.683C138.999 151.803 138.934 151.913 138.847 152.006C138.761 152.1 138.656 152.174 138.539 152.225C138.422 152.276 138.296 152.303 138.168 152.303C138.041 152.303 137.914 152.276 137.797 152.225C137.68 152.174 137.575 152.1 137.489 152.006C137.403 151.913 137.337 151.803 137.296 151.683C137.255 151.563 137.239 151.435 137.251 151.309V95.2798C137.251 95.0386 137.347 94.8071 137.518 94.6359C137.689 94.4647 137.922 94.3676 138.165 94.3657V94.3657Z" fill="url(#paint13_linear)"/>
<defs>
<linearGradient id="paint0_linear" x1="590340" y1="16067.3" x2="577071" y2="-22610.4" gradientUnits="userSpaceOnUse">
<stop stop-color="#EEDEBC"/>
<stop offset="0.06" stop-color="#DDC6A3"/>
<stop offset="0.14" stop-color="#C9A885"/>
<stop offset="0.26" stop-color="#9A7A5F"/>
<stop offset="0.36" stop-color="#C9A885"/>
<stop offset="0.49" stop-color="#EEDEBC"/>
<stop offset="0.54" stop-color="#DDC6A3"/>
<stop offset="0.61" stop-color="#C9A885"/>
<stop offset="0.72" stop-color="#9A7A5F"/>
<stop offset="0.84" stop-color="#C9A885"/>
<stop offset="1" stop-color="#EEDEBC"/>
</linearGradient>
<linearGradient id="paint1_linear" x1="125794" y1="11064.4" x2="110714" y2="-2682.71" gradientUnits="userSpaceOnUse">
<stop stop-color="#EEDEBC"/>
<stop offset="0.06" stop-color="#DDC6A3"/>
<stop offset="0.14" stop-color="#C9A885"/>
<stop offset="0.26" stop-color="#9A7A5F"/>
<stop offset="0.36" stop-color="#C9A885"/>
<stop offset="0.49" stop-color="#EEDEBC"/>
<stop offset="0.54" stop-color="#DDC6A3"/>
<stop offset="0.61" stop-color="#C9A885"/>
<stop offset="0.72" stop-color="#9A7A5F"/>
<stop offset="0.84" stop-color="#C9A885"/>
<stop offset="1" stop-color="#EEDEBC"/>
</linearGradient>
<linearGradient id="paint2_linear" x1="259804" y1="20650.6" x2="231205" y2="-7294.64" gradientUnits="userSpaceOnUse">
<stop stop-color="#EEDEBC"/>
<stop offset="0.06" stop-color="#DDC6A3"/>
<stop offset="0.14" stop-color="#C9A885"/>
<stop offset="0.26" stop-color="#9A7A5F"/>
<stop offset="0.36" stop-color="#C9A885"/>
<stop offset="0.49" stop-color="#EEDEBC"/>
<stop offset="0.54" stop-color="#DDC6A3"/>
<stop offset="0.61" stop-color="#C9A885"/>
<stop offset="0.72" stop-color="#9A7A5F"/>
<stop offset="0.84" stop-color="#C9A885"/>
<stop offset="1" stop-color="#EEDEBC"/>
</linearGradient>
<linearGradient id="paint3_linear" x1="76951.5" y1="18100.7" x2="61596" y2="12602.7" gradientUnits="userSpaceOnUse">
<stop stop-color="#EEDEBC"/>
<stop offset="0.06" stop-color="#DDC6A3"/>
<stop offset="0.14" stop-color="#C9A885"/>
<stop offset="0.26" stop-color="#9A7A5F"/>
<stop offset="0.36" stop-color="#C9A885"/>
<stop offset="0.49" stop-color="#EEDEBC"/>
<stop offset="0.54" stop-color="#DDC6A3"/>
<stop offset="0.61" stop-color="#C9A885"/>
<stop offset="0.72" stop-color="#9A7A5F"/>
<stop offset="0.84" stop-color="#C9A885"/>
<stop offset="1" stop-color="#EEDEBC"/>
</linearGradient>
<linearGradient id="paint4_linear" x1="149411" y1="36180" x2="120027" y2="26387.3" gradientUnits="userSpaceOnUse">
<stop stop-color="#EEDEBC"/>
<stop offset="0.06" stop-color="#DDC6A3"/>
<stop offset="0.14" stop-color="#C9A885"/>
<stop offset="0.26" stop-color="#9A7A5F"/>
<stop offset="0.36" stop-color="#C9A885"/>
<stop offset="0.49" stop-color="#EEDEBC"/>
<stop offset="0.54" stop-color="#DDC6A3"/>
<stop offset="0.61" stop-color="#C9A885"/>
<stop offset="0.72" stop-color="#9A7A5F"/>
<stop offset="0.84" stop-color="#C9A885"/>
<stop offset="1" stop-color="#EEDEBC"/>
</linearGradient>
<linearGradient id="paint5_linear" x1="275746" y1="28846.8" x2="237719" y2="394.126" gradientUnits="userSpaceOnUse">
<stop stop-color="#EEDEBC"/>
<stop offset="0.06" stop-color="#DDC6A3"/>
<stop offset="0.14" stop-color="#C9A885"/>
<stop offset="0.26" stop-color="#9A7A5F"/>
<stop offset="0.36" stop-color="#C9A885"/>
<stop offset="0.49" stop-color="#EEDEBC"/>
<stop offset="0.54" stop-color="#DDC6A3"/>
<stop offset="0.61" stop-color="#C9A885"/>
<stop offset="0.72" stop-color="#9A7A5F"/>
<stop offset="0.84" stop-color="#C9A885"/>
<stop offset="1" stop-color="#EEDEBC"/>
</linearGradient>
<linearGradient id="paint6_linear" x1="205735" y1="38447.5" x2="167729" y2="22812.3" gradientUnits="userSpaceOnUse">
<stop stop-color="#EEDEBC"/>
<stop offset="0.06" stop-color="#DDC6A3"/>
<stop offset="0.14" stop-color="#C9A885"/>
<stop offset="0.26" stop-color="#9A7A5F"/>
<stop offset="0.36" stop-color="#C9A885"/>
<stop offset="0.49" stop-color="#EEDEBC"/>
<stop offset="0.54" stop-color="#DDC6A3"/>
<stop offset="0.61" stop-color="#C9A885"/>
<stop offset="0.72" stop-color="#9A7A5F"/>
<stop offset="0.84" stop-color="#C9A885"/>
<stop offset="1" stop-color="#EEDEBC"/>
</linearGradient>
<linearGradient id="paint7_linear" x1="151257" y1="19581.4" x2="126965" y2="5091.18" gradientUnits="userSpaceOnUse">
<stop stop-color="#EEDEBC"/>
<stop offset="0.06" stop-color="#DDC6A3"/>
<stop offset="0.14" stop-color="#C9A885"/>
<stop offset="0.26" stop-color="#9A7A5F"/>
<stop offset="0.36" stop-color="#C9A885"/>
<stop offset="0.49" stop-color="#EEDEBC"/>
<stop offset="0.54" stop-color="#DDC6A3"/>
<stop offset="0.61" stop-color="#C9A885"/>
<stop offset="0.72" stop-color="#9A7A5F"/>
<stop offset="0.84" stop-color="#C9A885"/>
<stop offset="1" stop-color="#EEDEBC"/>
</linearGradient>
<linearGradient id="paint8_linear" x1="48708.4" y1="7174.97" x2="40047.8" y2="2405.93" gradientUnits="userSpaceOnUse">
<stop stop-color="#EEDEBC"/>
<stop offset="0.06" stop-color="#DDC6A3"/>
<stop offset="0.14" stop-color="#C9A885"/>
<stop offset="0.26" stop-color="#9A7A5F"/>
<stop offset="0.36" stop-color="#C9A885"/>
<stop offset="0.49" stop-color="#EEDEBC"/>
<stop offset="0.54" stop-color="#DDC6A3"/>
<stop offset="0.61" stop-color="#C9A885"/>
<stop offset="0.72" stop-color="#9A7A5F"/>
<stop offset="0.84" stop-color="#C9A885"/>
<stop offset="1" stop-color="#EEDEBC"/>
</linearGradient>
<linearGradient id="paint9_linear" x1="36456.8" y1="5530.48" x2="29879.2" y2="1775.95" gradientUnits="userSpaceOnUse">
<stop stop-color="#EEDEBC"/>
<stop offset="0.06" stop-color="#DDC6A3"/>
<stop offset="0.14" stop-color="#C9A885"/>
<stop offset="0.26" stop-color="#9A7A5F"/>
<stop offset="0.36" stop-color="#C9A885"/>
<stop offset="0.49" stop-color="#EEDEBC"/>
<stop offset="0.54" stop-color="#DDC6A3"/>
<stop offset="0.61" stop-color="#C9A885"/>
<stop offset="0.72" stop-color="#9A7A5F"/>
<stop offset="0.84" stop-color="#C9A885"/>
<stop offset="1" stop-color="#EEDEBC"/>
</linearGradient>
<linearGradient id="paint10_linear" x1="111523" y1="85900.9" x2="87096.7" y2="83165.4" gradientUnits="userSpaceOnUse">
<stop stop-color="#EEDEBC"/>
<stop offset="0.06" stop-color="#DDC6A3"/>
<stop offset="0.14" stop-color="#C9A885"/>
<stop offset="0.26" stop-color="#9A7A5F"/>
<stop offset="0.36" stop-color="#C9A885"/>
<stop offset="0.49" stop-color="#EEDEBC"/>
<stop offset="0.54" stop-color="#DDC6A3"/>
<stop offset="0.61" stop-color="#C9A885"/>
<stop offset="0.72" stop-color="#9A7A5F"/>
<stop offset="0.84" stop-color="#C9A885"/>
<stop offset="1" stop-color="#EEDEBC"/>
</linearGradient>
<linearGradient id="paint11_linear" x1="121787" y1="16989" x2="101603" y2="5472.77" gradientUnits="userSpaceOnUse">
<stop stop-color="#EEDEBC"/>
<stop offset="0.06" stop-color="#DDC6A3"/>
<stop offset="0.14" stop-color="#C9A885"/>
<stop offset="0.26" stop-color="#9A7A5F"/>
<stop offset="0.36" stop-color="#C9A885"/>
<stop offset="0.49" stop-color="#EEDEBC"/>
<stop offset="0.54" stop-color="#DDC6A3"/>
<stop offset="0.61" stop-color="#C9A885"/>
<stop offset="0.72" stop-color="#9A7A5F"/>
<stop offset="0.84" stop-color="#C9A885"/>
<stop offset="1" stop-color="#EEDEBC"/>
</linearGradient>
<linearGradient id="paint12_linear" x1="378460" y1="1689.71" x2="378212" y2="-2788.35" gradientUnits="userSpaceOnUse">
<stop stop-color="#EEDEBC"/>
<stop offset="0.06" stop-color="#DDC6A3"/>
<stop offset="0.14" stop-color="#C9A885"/>
<stop offset="0.26" stop-color="#9A7A5F"/>
<stop offset="0.36" stop-color="#C9A885"/>
<stop offset="0.49" stop-color="#EEDEBC"/>
<stop offset="0.54" stop-color="#DDC6A3"/>
<stop offset="0.61" stop-color="#C9A885"/>
<stop offset="0.72" stop-color="#9A7A5F"/>
<stop offset="0.84" stop-color="#C9A885"/>
<stop offset="1" stop-color="#EEDEBC"/>
</linearGradient>
<linearGradient id="paint13_linear" x1="7207.67" y1="55831.5" x2="4644.74" y2="55785.3" gradientUnits="userSpaceOnUse">
<stop stop-color="#EEDEBC"/>
<stop offset="0.06" stop-color="#DDC6A3"/>
<stop offset="0.14" stop-color="#C9A885"/>
<stop offset="0.26" stop-color="#9A7A5F"/>
<stop offset="0.36" stop-color="#C9A885"/>
<stop offset="0.49" stop-color="#EEDEBC"/>
<stop offset="0.54" stop-color="#DDC6A3"/>
<stop offset="0.61" stop-color="#C9A885"/>
<stop offset="0.72" stop-color="#9A7A5F"/>
<stop offset="0.84" stop-color="#C9A885"/>
<stop offset="1" stop-color="#EEDEBC"/>
</linearGradient>
</defs>
</svg>
